<?xml version="1.0" encoding="UTF-8" standalone="no"?>
<!-- Created with Inkscape (http://www.inkscape.org/) -->
<svg xmlns:rdf="http://www.w3.org/1999/02/22-rdf-syntax-ns#" xmlns="http://www.w3.org/2000/svg" xmlns:cc="http://web.resource.org/cc/" xmlns:dc="http://purl.org/dc/elements/1.1/" xmlns:svg="http://www.w3.org/2000/svg" xmlns:inkscape="http://www.inkscape.org/namespaces/inkscape" xmlns:sodipodi="http://sodipodi.sourceforge.net/DTD/sodipodi-0.dtd" xmlns:ns1="http://sozi.baierouge.fr" xmlns:xlink="http://www.w3.org/1999/xlink" id="Layer_1" xml:space="preserve" version="1.0" viewBox="0 0 178.596 459.471" inkscape:version="0.91 r13725">
<g id="g5">
	<path id="path7" style="stroke:black;stroke-width:.036;stroke-miterlimit:10;fill-rule:evenodd" d="m87.558 133.93c-2.736 3.42-6.552 7.31-11.736 11.81-5.256 4.53-12.888 9.9-19.152 14.97-6.3 4.93-12.816 9.11-18 14.33-5.328 5.11-9.612 11.34-12.996 16.16-3.456 4.72-5.472 7.13-6.876 11.96-1.404 4.68-1.728 11.08-1.368 16.16 0.252 4.97 1.872 10.22 3.06 13.82 1.188 3.5 3.096 5.19 3.78 7.42 0.432 2.27-0.18 4.18-0.576 5.87-0.396 1.55-0.9 2.63-1.656 3.38 3.96 0.11 7.308 1.12 10.188 3.03 2.736 1.8 5.292 3.85 6.696 8.1 1.368 4.06 1.98 11.3 1.404 16.84-0.756 5.55-2.16 12.28-5.58 16.17-3.528 3.71-8.316 5.83-14.94 6.37 2.376 1.4 3.96 2.99 4.608 4.9 0.612 1.8 0.972 3.27-0.72 6.23-1.908 2.91-6.732 7.05-9.756 11.44-3.06 4.21-5.58 8.43-7.848 14.15-2.376 5.65-4.932 11.95-5.58 19.73-0.756 7.67-0.972 18.14 1.836 26.42 2.952 8.28 8.352 16.56 15.228 22.76 6.696 5.9 14.976 10.18 24.84 13.42 9.756 3.24 20.988 5.69 33.696 6.23 12.708 0.33 28.94-0.72 41.9-3.71 12.86-3.06 26.25-8.85 34.78-14.32 8.42-5.55 11.3-11.13 15.59-18.69 4.17-7.7 7.34-16.59 9.5-27.11 0.69-4.57 0.86-9.68 0.54-15.76-0.47-6.16-0.94-14.48-2.66-20.38-1.84-6.08-5.37-11.3-7.53-14.98-2.19-3.67-4.24-4.93-5.18-6.55-1.01-1.69-0.72-2.27-0.54-3.38 0.22-1.15 0.72-2.52 1.51-3.53 0.61-1.15 1.55-2.12 2.52-3.06-2.84-0.33-5.4-1.48-7.67-3.06-2.44-1.73-4.68-3.89-6.15-6.91-1.55-3.21-2.81-7.49-2.66-11.45 0-4.07 1.11-8.86 3.49-12.13 2.37-3.24 6.01-5.55 10.9-7.06-1.36-1.98-2.01-3.67-1.94-5.08 0.07-1.47 1.33-1.22 2.38-3.52 1.04-2.49 2.95-6.59 3.49-10.77 0.32-4.35 0.18-9.14-1.26-14.51-1.59-5.36-3.6-10.9-7.56-17.31-4.03-6.52-6.84-11.85-16.2-21.24-9.51-9.47-30.75-27.15-40.11-34.99-9.356-7.85-14.54-11.96-15.692-12.17z"/>
	<path id="path9" style="stroke:black;stroke-width:.036;stroke-miterlimit:10;fill-rule:evenodd" d="m106.31 245.78c-0.61 0.72-2.81 1.33-6.441 1.69-3.888 0.29-10.763 1.01-15.624 0.65-4.824-0.43-9.108-1.33-12.996-2.84l9-179.9 16.956 0.002c3.025 60.118 6.045 120.24 9.105 180.4z"/>
	<path id="path11" style="stroke:black;stroke-width:.036;stroke-miterlimit:10;fill-rule:evenodd" d="m97.638 34.388l8.102 0.108c0.36-1.548 0.86-2.664 1.8-3.636 0.9-1.008 1.98-1.908 3.38-2.016 1.33-0.18 3.14 0.216 4.43 1.332 1.15 1.116 2.23 2.88 2.67 5.148 0.35 2.16 0.57 6.012-0.47 7.812-1.34 1.764-4.29 2.844-6.34 2.412-1.94-0.576-3.71-2.592-5.29-5.904h-7.454c-0.253-1.728-0.541-3.492-0.828-5.256z"/>
	<path id="path13" style="stroke:black;stroke-width:.036;stroke-miterlimit:10;fill-rule:evenodd" d="m97.709 53.504l8.141 0.108c0.25-1.548 0.93-2.664 1.76-3.636 0.86-1.08 2.05-1.944 3.42-2.052 1.33-0.216 3.13 0.288 4.43 1.368 1.19 1.152 2.16 2.808 2.63 5.112 0.36 2.124 0.57 6.084-0.47 7.848-1.19 1.728-4.39 2.844-6.3 2.376-1.95-0.576-3.71-2.592-5.29-5.904h-7.456c-0.289-1.728-0.577-3.456-0.865-5.22z"/>
	<path id="path15" style="stroke:black;stroke-width:.036;stroke-miterlimit:10;fill-rule:evenodd" d="m83.526 39.392l-8.1 0.108c-0.396-1.548-0.9-2.664-1.8-3.636-0.936-1.08-2.124-1.944-3.42-2.052-1.44-0.216-3.24 0.288-4.428 1.368-1.26 1.152-2.268 2.808-2.628 5.112-0.468 2.124-0.684 6.084 0.468 7.848 1.116 1.764 4.284 2.844 6.3 2.412 1.908-0.612 3.672-2.592 5.292-5.94h7.452c0.288-1.728 0.576-3.456 0.864-5.22z"/>
	<path id="path17" style="stroke:black;stroke-width:.036;stroke-miterlimit:10;fill-rule:evenodd" d="m81.078 59.624l-8.136 0.108c-0.288-1.548-0.972-2.664-1.764-3.636-0.936-1.008-2.124-1.908-3.42-2.016-1.44-0.18-3.24 0.216-4.428 1.332-1.26 1.116-2.268 2.88-2.628 5.148-0.468 2.16-0.684 6.012 0.468 7.812 1.116 1.764 4.284 2.844 6.3 2.412 1.908-0.576 3.672-2.592 5.292-5.904h7.452c0.288-1.728 0.576-3.492 0.864-5.256z"/>
	<path id="path19" style="stroke:black;stroke-width:.036;stroke-miterlimit:10;fill-rule:evenodd" d="m84.426 69.992c-1.8 0.072-3.168 0.072-4.248 0-1.116-0.145-1.692 0-2.16-0.684-0.54-0.828-1.152-1.332-0.864-3.996 0.072-2.88 1.08-6.624 1.908-12.492 0.792-5.94 1.872-13.392 3.096-22.644-1.296-1.332-2.196-2.916-2.556-4.752-0.396-1.836-0.252-3.924 0.288-6.264-0.504-0.324-0.828-0.756-1.116-1.584-0.324-0.936-0.612-2.052-0.576-3.204-0.072-1.26 0.144-3.06 0.648-3.744 0.468-0.756 1.224-0.9 2.268-0.576 0.684-2.844 1.44-4.824 2.268-6.48 0.72-1.692 1.26-2.484 2.736-3.06s4.572-0.648 6.228-0.216c1.439 0.432 2.52 1.836 3.096 2.844 0.54 0.864 0.72 1.944 0.396 2.844 0.576-0.36 1.368-0.36 1.98 0 0.576 0.396 1.512 1.08 1.979 2.052 0.433 0.828 0.573 1.8 0.573 3.06 0.72-0.54 1.33-0.396 1.69 0.432 0.4 0.756 0.54 3.168 0.58 4.464-0.07 1.188-0.32 2.268-0.76 2.952-0.54 0.612-1.33 0.828-2.372 0.792 0.072 1.584 0.072 2.664 0 3.528-0.144 0.72-0.359 1.224-0.647 1.224 0.144 1.944 0.252 5.292 0.468 10.476 0.108 5.148 0.433 14.508 0.576 20.016 0.036 5.292 0.465 9.36 0.175 12.06-0.391 2.664-1.219 3.528-1.902 3.96-0.685 0.36-1.404-0.288-2.16-1.8-1.656 0.828-3.492 1.152-5.364 1.368-1.944 0.18-4.068-0.144-6.228-0.576z"/>
	<path id="path21" style="stroke:black;stroke-width:.036;stroke-miterlimit:10;fill-rule:evenodd" d="m77.694 345.93c0 1.12 0.864 2.02 1.908 2.02s1.908-0.9 1.908-2.02c0-1.08-0.864-1.98-1.908-1.98s-1.908 0.9-1.908 1.98z"/>
	<path id="path23" style="stroke:black;stroke-width:.036;stroke-miterlimit:10;fill-rule:evenodd" d="m83.022 346.26c0 1.08 0.864 1.98 1.908 1.98s1.908-0.9 1.908-1.98c0-1.12-0.864-1.98-1.908-1.98s-1.908 0.86-1.908 1.98z"/>
	<path id="path25" style="stroke:black;stroke-width:.036;stroke-miterlimit:10;fill-rule:evenodd" d="m87.594 345.93c0 1.12 0.828 2.02 1.908 2.02 1.043 0 1.872-0.9 1.872-2.02 0-1.08-0.828-1.98-1.872-1.98-1.08 0-1.908 0.9-1.908 1.98z"/>
	<path id="path27" style="stroke:black;stroke-width:.036;stroke-miterlimit:10;fill-rule:evenodd" d="m93.93 346.26c0 1.08 0.827 1.98 1.907 1.98 1.044 0 1.872-0.9 1.872-1.98 0-1.12-0.828-1.98-1.872-1.98-1.08 0-1.907 0.86-1.907 1.98z"/>
	<path id="path29" style="stroke:black;stroke-width:.036;stroke-miterlimit:10;fill-rule:evenodd" d="m86.298 424.99c-0.144 3.2-0.144 5.54 0.144 7.45 0.216 1.8 0.612 2.41 1.188 3.38 0.504 0.83 1.224 1.52 2.016 1.91l0.216 15.55c-0.72 1.26-1.296 2.38-1.44 3.35-0.396 0.94-0.396 1.87 0.144 2.41 0.612 0.4 2.771 0.51 3.708 0.33 0.792-0.25 1.548-1.01 1.439-1.98-0.288-1.12-1.872-3.6-2.268-4.25-0.396-0.72-0.396-0.72 0 0l0.108-15.16c0.756-0.28 1.512-1.18 1.871-2.3 0.36-1.33 0.396-2.95 0.54-4.86 0.036-1.87 0.072-4-0.035-6.37-2.52 0.18-5.075 0.36-7.631 0.54z"/>
	<path id="path31" style="stroke:black;stroke-width:.036;stroke-miterlimit:10;fill-rule:evenodd" d="m86.658 428.59l-3.204 0.07c-0.252-0.72-0.648-1.15-1.188-1.3-0.576-0.25-1.8-0.21-2.16 0.26-0.468 0.54-0.504 1.83-0.396 2.77 0.036 0.86 0.324 1.62 0.864 2.12 0.576 0.33 1.62 0.54 2.304 0.25 0.54-0.36 0.792-1.08 0.9-2.16l2.916-0.14c0-0.61 0-1.22-0.036-1.87z"/>
</g>
<metadata><rdf:RDF><cc:Work><dc:format>image/svg+xml</dc:format><dc:type rdf:resource="http://purl.org/dc/dcmitype/StillImage"/><cc:license rdf:resource="http://creativecommons.org/licenses/publicdomain/"/><dc:publisher><cc:Agent rdf:about="http://openclipart.org/"><dc:title>Openclipart</dc:title></cc:Agent></dc:publisher><dc:title>Cello</dc:title><dc:date>2006-10-17T10:42:39</dc:date><dc:description>Silhouette of a cello.</dc:description><dc:source>https://openclipart.org/detail/696/cello-by-gerald_g</dc:source><dc:creator><cc:Agent><dc:title>Gerald_G</dc:title></cc:Agent></dc:creator><dc:subject><rdf:Bag><rdf:li>cello</rdf:li><rdf:li>instrument</rdf:li><rdf:li>music</rdf:li><rdf:li>silhouette</rdf:li></rdf:Bag></dc:subject></cc:Work><cc:License rdf:about="http://creativecommons.org/licenses/publicdomain/"><cc:permits rdf:resource="http://creativecommons.org/ns#Reproduction"/><cc:permits rdf:resource="http://creativecommons.org/ns#Distribution"/><cc:permits rdf:resource="http://creativecommons.org/ns#DerivativeWorks"/></cc:License></rdf:RDF></metadata></svg>
