<?xml version="1.0" encoding="UTF-8" standalone="no"?>
<svg xmlns:rdf="http://www.w3.org/1999/02/22-rdf-syntax-ns#" xmlns="http://www.w3.org/2000/svg" height="1159.7" viewBox="0 0 2114.0625 1159.6875" width="2114.1" version="1.1" xmlns:cc="http://creativecommons.org/ns#" xmlns:dc="http://purl.org/dc/elements/1.1/">
<path d="m1949.9 1159.3c-0.2149-0.1952-5.0313-0.6895-10.703-1.0983-10.915-0.7869-19.485-0.9394-98.438-1.7517-27.328-0.2812-57.492-0.9117-67.031-1.4011-9.5391-0.4894-21.984-0.7284-27.656-0.531-21.552 0.7497-100.68 0.07-107.34-0.9215-1.8047-0.2689-27.084-0.7231-56.177-1.0094-29.092-0.2862-53.231-0.7282-53.642-0.9819-1.7221-1.0644-148.66-0.5548-159.71 0.5539-7.2889 0.7308-12.9 0.8306-15.938 0.2833-2.5782-0.4646-11.227-0.5739-19.219-0.2429-7.9922 0.3311-34.781 0.4989-59.531 0.373-43.683-0.2223-61.038-1.0007-82.5-3.7003-11.813-1.4859-47.113-2.7249-81.094-2.8463-31.301-0.1118-40.464-0.4326-46.875-1.6414-4.9835-0.9395-13.588-1.5417-22.969-1.6075-8.25-0.058-19.817-0.4516-25.704-0.875-8.6898-0.6249-11.336-0.5056-14.062 0.6341-2.8503 1.1914-7.2577 1.2996-29.14 0.7151-14.18-0.3788-37.383-0.7967-51.562-0.9288-14.18-0.1321-27.469-0.6678-29.531-1.1904-2.0625-0.5227-12.188-1.0191-22.5-1.103-10.312-0.084-24.234-0.228-30.938-0.32-6.7031-0.092-22.082 0.127-34.175 0.4867-17.53 0.5213-22.757 0.3928-25.781-0.6339-5.1314-1.742-18.804-1.9229-47.673-0.6305-13.306 0.5957-24.556 0.8583-25 0.5837-0.4444-0.2747-55.159-0.7017-121.59-0.9491-66.43-0.2473-127.74-0.6656-136.25-0.9295-8.5078-0.2639-29.391-0.9007-46.406-1.4153-17.016-0.5145-32.625-1.156-34.688-1.4255-2.0625-0.2695-9.9613-0.8827-17.553-1.3626-14.687-0.9285-17.603-1.7367-17.603-4.8778 0-1.8921 0.29184-1.9441 7.2656-1.2938 3.9961 0.3726 19.942 0.9861 35.436 1.3632 15.493 0.3771 28.572 0.9329 29.062 1.2352 0.49091 0.3024 13.549 0.5734 29.018 0.6023 15.469 0.029 43.102 0.1756 61.406 0.3259 35.558 0.2919 132.42 0.2761 171.09-0.028 12.891-0.1014 35.672 0.2418 50.625 0.7626s46.805 1.1586 70.781 1.4174c44.853 0.4842 76.615 1.1369 91.406 1.8786 4.6406 0.2327 44.508 0.6254 88.594 0.8727 78.67 0.4414 127.71 1.5031 156.56 3.39 20.585 1.3461 63.546 2.6826 104.8 3.2607 39.97 0.5601 73.889 1.8413 82.226 3.1059 18.405 2.7915 140.77 0.0005 142.25-3.2446 1.196-2.625 1.5894-2.7346 14.78-4.1189 5.4141-0.5682 14.954-2.0726 21.201-3.3431 6.2464-1.2706 13.207-2.2331 15.469-2.1391 2.2614 0.094 6.432-0.3363 9.2679-0.9561 2.8359-0.6199 10.641-1.7415 17.344-2.4926 6.7031-0.751 15.141-1.7753 18.75-2.2763 3.6093-0.501 8.8828-0.9279 11.719-0.9488 2.8359-0.021 8.3203-0.8375 12.188-1.8147 3.8672-0.9771 9.5625-2.4238 12.656-3.2148 6.8017-1.739 32.438-4.6723 67.031-7.6694 9.0234-0.7817 20.203-1.8243 24.844-2.3169 4.6406-0.4926 12.867-1.0863 18.281-1.3195 6.9214-0.2981 11.514-1.0326 15.469-2.4739 5.0007-1.8225 6.7354-1.9811 15.631-1.4301 6.8275 0.4231 14.57 0.1319 24.375-0.9165 12.096-1.2933 18.372-1.3996 39.682-0.6718 13.922 0.4755 27.844 0.5491 30.938 0.1635 17.685-2.2042 34.464 1.1458 29.683 5.9263-0.7545 0.7545-2.7676 0.6164-7.435-0.5101-5.062-1.2219-7.5901-1.3532-12.09-0.6285-3.1826 0.5125-13.285 0.6818-22.924 0.3841-28.691-0.8859-39.194-0.779-51.453 0.524-6.4453 0.6851-16.599 1.1718-22.564 1.0814-7.7965-0.118-13.457 0.3733-20.137 1.7478-6.8043 1.4-12.56 1.8859-21.499 1.8146-18.163-0.1447-39.68 1.7819-43.158 3.8645-1.9752 1.1826-3.9518 1.5494-6.5625 1.2178-3.559-0.4521-16.062 0.4555-33.152 2.4067-5.412 0.6178-8.4722 1.4477-9.8437 2.6696-1.6034 1.4284-4.6332 1.9903-15.584 2.8904-7.4766 0.6145-16.547 1.5186-20.156 2.0092-3.6093 0.4907-10.781 1.314-15.938 1.8299-16.725 1.6728-36.712 4.4895-38.534 5.4304-0.978 0.505-5.611 1.1957-10.296 1.5349-8.2306 0.596-20.486 3.4206-22.177 5.111-1.3235 1.3235 17.237 2.1813 42.766 1.9765 22.762-0.1825 61.489 0.54 78.866 1.4715 4.6407 0.2487 17.93 0.3714 29.531 0.2726 78.658-0.6701 201.77 0.6719 219 2.3873 6.1604 0.6132 52.184 1.5733 93.389 1.9482 28.66 0.2607 30.502 0.5536 29.226 4.6474-0.339 1.0873-1.0868 2.2869-1.6619 2.6657-1.0542 0.6945-17.741 1.0221-18.467 0.3626zm8.9844-26.824c-5.4562-0.7746-21.292-2.356-37.969-3.7916-13.861-1.1931-62.817-3.7266-70.561-3.6515-6.0612 0.059-9.1266-0.6507-9.1266-2.1123 0-1.4887 33.907-0.2304 93.281 3.4614 28.615 1.7792 35.635 3.0357 33.775 6.0448-0.6559 1.0612-2.2145 1.0693-9.4004 0.049zm-620.77-4.2617c-1.73-4.5083 12.781-11.489 32.018-15.402 3.0937-0.6294 6.8574-1.8043 8.3637-2.611 3.006-1.6097 18.106-4.8955 22.574-4.912 1.5468-0.01 5.7656-0.6166 9.375-1.3575 9.1474-1.8775 20.156-2.841 20.156-1.764 0 0.8735-12.11 3.4796-21.094 4.5397-4.4845 0.5291-12.991 2.2853-27.188 5.6129-3.6094 0.846-8.25 1.9066-10.312 2.3568-2.0625 0.4503-6.4922 1.9064-9.8438 3.2356-3.3516 1.3293-7.714 2.8543-9.6943 3.3888-1.9804 0.5345-5.4025 2.6328-7.6049 4.6628-4.3215 3.9834-5.885 4.5046-6.7502 2.2499zm73.373-1.7746c0.755-1.9677 5.246-3.2557 15.236-4.3696 4.8784-0.544 10.384-1.5397 12.234-2.2126s5.6839-1.8984 8.5198-2.7234 8.5313-2.5122 12.656-3.7493c11.722-3.5152 34.078-9.0419 36.576-9.0419 5.0879 0 0.5778 3.4546-6.1073 4.6779-15.529 2.842-19.839 3.7749-21.468 4.6466-1.0125 0.5418-4.5065 1.6235-7.7645 2.4038-5.488 1.3143-12.009 3.1246-23.736 6.5892-12.948 3.8253-26.939 5.8478-26.145 3.7793zm-286.53-1.968c-4.2499-5.1209 21.324-16.612 48.773-21.916 12.284-2.3732 32.123-6.2875 40.781-8.0457 17.806-3.6159 23.323-4.2084 21.414-2.3-0.9546 0.9546-3.9513 1.6926-22.352 5.5045-4.6407 0.9613-13.5 2.8738-19.688 4.2501-6.1875 1.3761-16.102 3.566-22.031 4.8663-12.982 2.8469-16.243 3.6993-25.098 6.5599-3.7491 1.2113-7.3838 2.2022-8.0772 2.2022s-3.6755 2.3203-6.627 5.1562c-6.1343 5.8941-5.5485 5.5868-7.0957 3.7226zm137.31 0.4016c-1.2575-2.0347 3.1916-4.755 11.989-7.3302 4.9213-1.4406 11.211-3.4732 13.977-4.5168 11.454-4.3215 20.702-6.9277 34.092-9.6076 10.356-2.0725 22.982-4.7694 35.156-7.509 15.697-3.5323 50.328-9.051 51.218-8.1617 1.3115 1.3114-1.0388 2.3962-6.4503 2.9772-3.2236 0.3463-8.3923 1.1975-11.486 1.8918-3.0938 0.6944-9.4219 1.9616-14.062 2.816-4.6407 0.8544-10.125 1.9667-12.188 2.4717-3.6361 0.8904-5.5444 1.236-21.625 3.9166-4.1592 0.6934-8.0855 1.584-8.7248 1.9792-0.6395 0.3951-3.3537 1.0451-6.0316 1.4444-2.6779 0.3992-8.4549 1.6475-12.838 2.7742-4.3828 1.1267-9.6562 2.474-11.719 2.9939-2.0625 0.52-5.0157 1.3618-6.5625 1.8709-1.5469 0.5091-5.5547 1.7853-8.9063 2.8359-3.3516 1.0507-6.8371 2.3024-7.7455 2.7816-0.9085 0.4792-3.6507 1.5473-6.0938 2.3736s-5.5618 2.2961-6.9304 3.2663c-2.8433 2.0156-4.1593 2.2057-5.07 0.732zm571.7-2.0148c0.2148-0.6445 1.375-1.1718 2.5781-1.1718s2.3633 0.5273 2.5781 1.1718c0.2577 0.7731-0.6198 1.1719-2.5781 1.1719s-2.8358-0.3988-2.5781-1.1719zm-777.42-8.353c-1.8047-0.5445-8.5547-1.3476-15-1.7845-6.4453-0.437-14.883-1.221-18.75-1.7423-3.8672-0.5212-12.094-1.3986-18.281-1.9498-6.1874-0.5512-12.516-1.3827-14.062-1.8479-1.5469-0.4651-8.2969-1.5149-15-2.3329-6.7031-0.8179-17.039-2.1186-22.969-2.8906-18.253-2.3761-31.534-3.348-52.031-3.8074-10.828-0.2428-27.841-0.7864-37.807-1.2082-20.966-0.8872-87.791-0.5198-133.29 0.733-30.11 0.8292-53.689 0.6852-64.688-0.3951-10.746-1.0556-56.675-0.5781-78.281 0.8136-67.218 4.3299-79.834 4.6037-110.17 2.3911-15.296-1.1157-23.474-1.3396-26.719-0.7315-7.3585 1.379-57.57 1.4497-60.768 0.085-7.197-3.0698-1.5975-3.8262 21.873-2.9543 4.3828 0.1627 18.938-0.011 32.344-0.3869 16.906-0.4735 26.673-0.3508 31.875 0.4007 9.6937 1.4005 51.439 2.0251 55.908 0.8366 1.8746-0.4984 13.898-1.122 26.719-1.3858s24.998-0.7061 27.06-0.983c15.538-2.0863 58.153-3.0684 70.312-1.6203 7.5292 0.8965 55.623 1.6741 66.562 1.0762 31.523-1.7232 134.97-2.2506 152.34-0.7768 6.4453 0.5469 18.891 0.9191 27.656 0.827 15.96-0.1675 38.973 1.1923 49.866 2.9468 23.299 3.7522 34.044 4.397 33.418 2.0055-0.7395-2.8276 14.156-8.6064 22.184-8.6064 2.8028 0 8.7897-1.573 35.625-9.3604 8.5078-2.4688 18.844-5.3555 22.969-6.4148s14.25-3.682 22.5-5.8283c26.09-6.7875 28.889-7.4125 49.688-11.093 6.1875-1.0951 12.938-2.3956 15-2.89 4.8206-1.1557 34.123-6.4666 44.297-8.0287 4.1847-0.6424 5.8706 1.002 1.875 1.829-1.1601 0.2402-6.3281 1.3307-11.484 2.4234-5.1563 1.0928-12.117 2.5573-15.469 3.2546-3.3516 0.6972-9.0469 1.9006-12.656 2.674-3.6094 0.7735-9.7266 2.056-13.594 2.85-21.697 4.4547-28 5.9254-51.094 11.923-24.996 6.4911-40.274 10.699-57.656 15.878-8.5933 2.5606-19.644 5.2053-31.406 7.5161-7.1536 1.4055-17.174 4.5471-17.816 5.5856-1.0128 1.6389 13.725 4.3069 33.753 6.1106 8.7657 0.7894 18.469 1.8424 21.563 2.34 10.927 1.7576 17.991 1.2175 23.323-1.7831 2.6408-1.4862 7.1219-3.2154 9.9578-3.8427s7.8984-1.9272 11.25-2.8885c6.3816-1.8306 20.924-5.2232 28.125-6.5614 5.6337-1.0469 12.656-2.4456 17.812-3.5478 2.3203-0.4959 6.75-1.3785 9.8438-1.9611 3.0937-0.5827 7.6795-1.519 10.19-2.0809 2.5111-0.5618 6.9408-1.3713 9.8437-1.7988 5.7946-0.8533 13.525-2.3522 19.341-3.7503 2.0625-0.4959 7.3359-1.5563 11.719-2.3565 4.3828-0.8003 11.344-2.0836 15.469-2.8521 4.125-0.7684 9.6093-1.7888 12.188-2.2675 2.5781-0.4788 9.3281-1.5417 15-2.3619 5.6718-0.8201 12.337-1.8793 14.812-2.3536 7.0894-1.3588 11.698-1.1664 9.9985 0.4174-0.8061 0.7516-6.6146 1.9132-14.073 2.8143-6.9854 0.844-15.127 2.1665-18.093 2.939-2.9656 0.7725-6.7054 1.4044-8.3107 1.4044s-5.0652 0.6082-7.6886 1.3515c-2.6235 0.7434-9.8325 2.1926-16.02 3.2207s-15.469 2.5691-20.625 3.4247c-5.1562 0.8555-10.641 1.9145-12.188 2.3532-1.5468 0.4388-6.6093 1.4934-11.25 2.3436-4.6406 0.8501-9.9984 2.1269-11.906 2.8371-1.9078 0.7104-8.2359 2.1276-14.062 3.1496-12.111 2.1242-30.39 6.1851-33.975 7.5482-1.3337 0.5071-4.9687 1.3317-8.0778 1.8324-10.254 1.6514-15.675 5.2359-11.9 7.8693 2.0671 1.4418 2.032 1.4723-1.7442 1.5205-2.1195 0.027-5.7054 0.2382-7.9687 0.4693-2.2634 0.231-5.5918-0.025-7.3965-0.57zm154.69-0.7101c0-1.8555 19.137-7.7921 36.486-11.319 7.5185-1.5284 17.678-3.6626 22.576-4.7427 4.8984-1.0802 11.438-2.3198 14.531-2.7548 3.0937-0.435 8.789-1.4814 12.656-2.3251 12.091-2.6382 30.024-5.5942 43.121-7.1077 4.3852-0.5068 10.082-1.3113 12.661-1.7877 6.2905-1.1625 13.594-1.1938 13.594-0.058 0 1.0172-0.7018 1.2014-12.188 3.1996-15.524 2.7007-22.547 3.6463-23.085 3.108-0.2998-0.2997-1.6618-0.1197-3.0267 0.4-3.0095 1.146-8.9466 2.3212-20.763 4.1098-9.2911 1.4064-25.698 4.6375-28.125 5.5389-0.7734 0.2872-6.2578 1.3957-12.188 2.4632-25.376 4.5685-29.67 5.4248-32.2 6.4202-9.7929 3.8547-24.05 6.7332-24.05 4.8557zm746.17-6.0593c-0.4738-0.4328-29.734-2.1888-56.641-3.3993-10.828-0.4871-20.632-1.1549-21.786-1.4839-8.1057-2.3102 12.16-2.9207 42.88-1.2917 9.0234 0.4784 22.18 1.1527 29.236 1.4985 13.566 0.6646 15.448 1.1225 14.524 3.5324-0.5183 1.3504-6.9986 2.2531-8.2129 1.144zm-397.5-6.4c0-1.7338 2.8609-2.7707 4.1333-1.4983 0.7181 0.7181 0.6058 1.2612-0.3912 1.8914-2.0352 1.2868-3.7421 1.1074-3.7421-0.3931zm333.13-5.7883c-0.7388-1.9256 0.7442-3.3645 2.4078-2.3364 1.4168 0.8756 0.7642 3.8056-0.8476 3.8056-0.548 0-1.2501-0.6611-1.5602-1.4692zm-254.08-4.5913c-4.2284-1.839-20.273-3.5905-26.982-2.9455-6.4295 0.6181-11.435-0.053-37.999-5.0939-4.9633-0.9419-9.1372-0.9008-22.5 0.2218-16.485 1.3848-25.312 1.2876-25.312-0.2788 0-0.4637 2.9707-0.8431 6.6015-0.8431s12.174-0.6836 18.984-1.5191c12.91-1.5838 34.547-0.169 40.977 2.6794 1.3483 0.5974 9.1127 1.1215 18.281 1.2341 22.22 0.2728 36.147 3.0584 33.178 6.6363-1.2872 1.5509-1.4601 1.5479-5.2286-0.091zm321 0.795c-0.5305-0.5304-13.181-1.6293-30.672-2.6642-9.1808-0.5432-13.125-1.3004-13.125-2.5197 0-1.7233 48.684 1.3249 49.792 3.1176 1.352 2.1877-4.021 4.0399-5.9944 2.0663zm-718.8-1.2601c0-1.15 2.5337-1.9119 6.3579-1.9119 2.2974 0 3.0847 0.3074 2.4394 0.9527-1.1861 1.1861-8.7973 2.016-8.7973 0.9592zm171.03-2.0077c-0.6957-1.1258 1.2855-1.6322 17.794-4.5491 6.7678-1.1958 15.547-1.2816 15.547-0.1519 0 1.1375-3.4271 1.9562-8.2524 1.9715-2.2185 0.01-6.8592 0.6151-10.312 1.3511-8.8188 1.8797-14.158 2.3778-14.776 1.3784zm-700.25-2.0102c-4.125-0.3848-12.984-0.632-19.688-0.5491-11.053 0.1366-19.583-0.4195-25.682-1.6743-4.1608-0.856-0.42406-2.5909 5.2796-2.4513 2.9716 0.073 11.731 0.3203 19.465 0.5499 77.12 2.2895 107.3 1.1685 124.97-4.6414 6.8958-2.2675 31.353-3.1329 62.529-2.2125 15.984 0.4719 39.293 1.1451 51.797 1.4959 21.262 0.5965 26.944 1.3035 19.688 2.4498-1.6758 0.2646-22.284 0.1714-45.796-0.2071-67.914-1.0935-84.163-0.4307-103.03 4.2025-13.317 3.27-67.381 5.1042-89.531 3.0376zm570.7-3.7534c0.2116-0.6445 1.8288-1.2817 3.5937-1.4161l3.2091-0.2442-2.3438 1.3829c-2.8949 1.7081-4.9711 1.8372-4.459 0.2774zm-859.32-2.2942c-0.21449-0.2145-24.405-1.3267-31.065-1.4282-0.51563-0.01-7.1409 0.2373-14.723 0.5448-9.1615 0.3714-13.988 0.2303-14.391-0.4207-1.0436-1.6886 0.49446-2.2569 6.4604-2.3873 3.178-0.069 13.372-0.4232 22.653-0.7862 13.465-0.5266 18.047-0.3786 22.675 0.7324 3.1901 0.7658 5.9416 1.2508 6.1146 1.0778 0.17301-0.173 8.9536-0.5423 19.512-0.8205 21.939-0.5782 30.919-1.0344 58.871-2.9907 11.415-0.799 38.15-1.5425 62.344-1.734 42.27-0.3346 53.986-1.0815 79.858-5.091 9.0381-1.4006 64.905-2.2923 63.629-1.0155-1.3616 1.362-15.143 2.4621-46.749 3.7321-13.919 0.5593-26.998 1.3815-29.062 1.8271-13.434 2.8993-35.634 4.045-74.536 3.8467-21.753-0.1108-69.301 2.0183-71.193 3.1879-0.87053 0.538-7.9504 0.791-49.069 1.753-6.0737 0.1422-11.172 0.1297-11.329-0.028zm1368.2-3.1808c-2.8359-0.4168-10.098-1.1668-16.138-1.6666-6.0399-0.4998-11.339-1.1298-11.777-1.4001-2.785-1.7213-54.118-3.26-63.257-1.8962-5.265 0.7857-4.8162-1.9821 0.4688-2.8913 12.608-2.1689 41.001-1.9155 49.562 0.4423 1.8646 0.5136 5.3248 0.9338 7.6894 0.9338 3.7291 0 25.718 2.7553 33.921 4.2505 1.5468 0.2819 4.0426 0.6012 5.5461 0.7093 1.5035 0.108 2.9097 0.7238 3.125 1.3683 0.435 1.3026-1.1242 1.3282-9.1399 0.15zm-186.5-8c-2.4309-1.1143-6.6948-1.5559-16.454-1.7041-7.2451-0.11-14.628-0.6593-16.406-1.2207-1.7784-0.5613-9.3506-1.2633-16.827-1.5601-14.608-0.5798-19.411-1.1691-20.222-2.4816-0.7704-1.2466 15.75-0.9696 34.284 0.5751 9.0234 0.7519 20.511 1.3759 25.528 1.3867 10.393 0.023 16.66 1.8311 16.66 4.8088 0 2.1729-2.1117 2.2359-6.5625 0.1959zm-336.56-0.2345c0-1.6285 0.3681-1.6887 29.531-4.8283 9.1896-0.9893 10.648-1.4027 13.392-3.7976 3.7659-3.2863 2.6006-3.087 18.483-3.1604 7.2187-0.034 16.289-0.5826 20.156-1.2207 7.0898-1.1696 110.22-1.0084 113.44 0.1774 0.7734 0.2847 6.0469 0.7165 11.719 0.9596 28.912 1.2391 37.705 1.852 39.844 2.7775 3.0587 1.3232-9.355 2.3419-16.273 1.3354-2.5049-0.3645-9.4659-0.9042-15.469-1.1995-6.0029-0.2952-16.61-0.9294-23.571-1.4093-6.9609-0.48-20.25-0.8287-29.531-0.775-61.36 0.3547-78.354 0.6948-83.438 1.6698-10.144 1.9456-12.232 2.0813-17.396 1.1306-6.3038-1.1604-12.116-0.1789-14.794 2.4983-1.6928 1.6928-3.1133 2.029-8.5741 2.029-6.5117 0-12.941 0.7644-28.142 3.3465-9.3835 1.5937-9.375 1.5933-9.375 0.4667zm-550.31-4.5058c0-2.3661 28.232-4.4604 49.219-3.651 7.2188 0.2783 14.766 0.5052 16.772 0.5042 4.5067 0 9.3433 1.0057 8.5639 1.7852-0.31889 0.3188-14.376 0.6158-31.239 0.6598s-33.507 0.4368-36.987 0.8728c-4.2226 0.529-6.3281 0.4721-6.3281-0.171zm1041.6-10.521c0-1.1746 5.1091-2.474 15-3.8151 4.3828-0.5942 9.508-1.4684 11.389-1.9425 8.8627-2.2337 44.861-7.1493 44.861-6.126 0 1.3845-7.7459 3.5701-19.112 5.3928-6.7616 1.0842-14.403 2.3153-16.981 2.7357-4.8906 0.7975-13.852 2.225-23.438 3.7335-7.2775 1.1454-11.719 1.1535-11.719 0.022zm116.46-1.1633c0.2197-0.6691 1.8429-1.3565 3.6069-1.5277 1.7641-0.1711 9.3253-1.5775 16.803-3.1253 32.563-6.7405 45.939-8.3923 45.939-5.673 0 1.8119-4.3432 2.9258-17.647 4.5263-1.8959 0.2281-4.0799 0.607-4.8533 0.8421s-3.3047 0.6554-5.625 0.934c-2.3203 0.2787-6.3292 1.1111-8.9085 1.85-2.5793 0.7387-8.2747 1.5875-12.656 1.8862-4.3816 0.2987-10.012 0.7592-12.513 1.0235-3.4627 0.3659-4.4508 0.1905-4.1465-0.7361zm-746.46-1.6963c-2.8359-0.37-9.7969-1.3939-15.469-2.2755-9.4616-1.4703-16.973-2.361-34.613-4.1038-3.8902-0.3843-6.6442-1.1137-6.878-1.8215-0.6521-1.9752 24.504-0.3221 39.147 2.5724 2.3203 0.4587 8.9648 1.3568 14.766 1.9958 9.157 1.0088 10.547 1.3872 10.547 2.8715 0 0.9403-0.5273 1.6475-1.1719 1.5718-0.6445-0.076-3.4922-0.4406-6.3281-0.8107zm561.86-0.5604c-0.798-2.0795 1.2053-2.4922 36.263-7.4707 5.4141-0.7688 11.32-1.7925 13.125-2.2747 1.8047-0.4823 7.5-1.5092 12.656-2.282 5.1562-0.7729 13.383-2.3028 18.281-3.3999 4.8984-1.0971 10.805-2.3245 13.125-2.7277 2.3203-0.4031 7.5938-1.6095 11.719-2.6808 11.226-2.9157 21.011-4.3626 22.105-3.2687 1.928 1.928-12.206 5.8331-38.512 10.64-2.3203 0.4241-8.8594 1.6564-14.531 2.7386-5.6719 1.0821-12.633 2.3575-15.469 2.8341-2.8359 0.4766-6.6328 1.2935-8.4375 1.8152-3.4567 0.9993-19.415 3.7261-25.781 4.4053-2.0625 0.22-5.8594 0.7994-8.4375 1.2877-9.1759 1.7374-15.529 1.8888-16.107 0.3836zm-65.782-1.1959c-4.2949-2.7218-0.8782-4.27 17.677-8.0096 10.051-2.0258 18.486-3.981 18.744-4.3448 0.2578-0.364 3-0.891 6.0938-1.1713 3.0937-0.2802 8.5781-1.1654 12.188-1.9669 3.6093-0.8017 7.8281-1.4628 9.375-1.4692 1.5468-0.01 4.7109-0.6302 7.0312-1.3861 2.3203-0.756 7.5938-2.0926 11.719-2.9703 4.125-0.8777 9.5387-2.6063 12.03-3.8414 5.4448-2.6988 8.472-2.5308 8.9008 0.4941 0.4684 3.304-1.4564 4.8703-5.9851 4.8703-2.2236 0-5.1932 0.4373-6.599 0.9718-1.4059 0.5346-5.9685 1.6037-10.139 2.376-14.257 2.6401-17.898 3.4191-21.997 4.7057-2.2557 0.7081-4.4534 1.07-4.8836 0.8041s-3.4361 0.1372-6.6797 0.8957c-3.2438 0.7585-13.281 2.7364-22.304 4.3954-10.793 1.9842-17.171 3.6082-18.642 4.7462-2.419 1.8719-4.5348 2.1636-6.5283 0.9003zm-1186.1-0.3579c-0.25781-0.2675-8.7622-0.7609-18.899-1.0964-10.136-0.3356-19.84-1.0623-21.562-1.6151-1.723-0.5527-9.4608-1.1307-17.195-1.2844-7.7344-0.1537-18.281-0.7167-23.438-1.2512-5.1562-0.5346-11.067-0.9651-13.136-0.9567-4.9173 0.02-8.8956-1.5429-8.8956-3.4945 0-1.7311 14.052-1.3499 25.781 0.6995 3.0938 0.5406 11.109 0.8818 17.812 0.7582 6.7031-0.1234 14.93 0.2673 18.281 0.8686 6.9099 1.2394 9.5654 1.507 30.469 3.0695 17.333 1.2957 25.155 1.2225 71.526-0.6695 18.714-0.7636 37.066-1.4091 40.781-1.4345 3.7156-0.025 9.7088-0.4092 13.318-0.853 9.1919-1.1302 96.584-2.1587 101.72-1.1971 10.202 1.9104 2.0448 2.6169-31.406 2.72-36.521 0.1126-70.285 0.882-71.494 1.6291-0.39477 0.244-13.79 0.9347-29.768 1.535-15.978 0.6002-30.316 1.2391-31.863 1.4196-5.2718 0.6155-51.561 1.6411-52.031 1.1529zm349.38-2.2177c-0.0865-0.068-22.517-0.4043-49.845-0.7468-59.201-0.7418-73.792-1.3932-75.001-3.3486-1.1085-1.7937 2.2172-1.9567 19.468-0.9543 9.9181 0.5764 26.681 1.2146 37.252 1.4184 10.57 0.2037 20.062 0.4315 21.094 0.506 1.0312 0.075 14.301 0.1 29.489 0.056 25.822-0.074 30.851 0.3538 28.758 2.4466-0.54932 0.5493-10.6 1.1071-11.214 0.6224zm18.124-0.1209c-1.2891-0.1736-2.9766-0.5512-3.75-0.8391-4.0936-1.5236 5.573-2.0387 39.186-2.088 20.263-0.03 37.138-0.2302 37.5-0.4456 0.36197-0.2153 7.5879-0.6603 16.058-0.9886 8.4697-0.3284 16.274-0.8046 17.344-1.0583 9.9056-2.35 96.709-3.8155 100.15-1.6908 2.6228 1.621-2.9101 1.9744-31.406 2.0055-31.27 0.034-44.26 0.6224-77.109 3.4919-14.316 1.2506-91.254 2.5173-97.969 1.613zm800.96-4.4651c-0.9821-2.559 0.7675-3.1698 9.8932-3.4536 6.3803-0.1985 8.9142 0.047 9.2093 0.8923 0.9638 2.7615-18.048 5.3106-19.102 2.5613zm-238.46-1.6761c0-1.0871 1.5283-1.5735 6.3281-2.0139 3.4805-0.3194 8.8594-0.9931 11.953-1.497 3.0937-0.5039 11.32-1.0891 18.281-1.3004 6.9609-0.2114 20.461-0.6754 30-1.0312 13.911-0.5189 17.123-0.4137 16.228 0.5316-0.7898 0.8342-7.4968 1.4018-22.969 1.9437-12.019 0.4208-25.861 1.1908-30.759 1.7109-4.8984 0.5201-12.492 1.2-16.875 1.5108-4.3828 0.3108-8.918 0.7931-10.078 1.0718-1.4887 0.3578-2.1094 0.085-2.1094-0.9263zm475.13-1.214c2.7115-1.1845 6.7456-2.1172 26.351-6.0925 2.2753-0.4614 6.2831-1.4671 8.9062-2.2348 16.497-4.8287 24.999-4.8959 15.773-0.1248-6.5071 3.365-39.256 10.014-48.672 9.8821l-5.4557-0.077 3.0985-1.3535zm-284.8-3c0-0.4703 1.793-1.137 3.9844-1.4816 2.1914-0.3445 5.25-0.9827 6.7969-1.418 2.8778-0.8098 15.827-3.0892 26.719-4.7031 7.8105-1.1574 13.125-1.1625 13.125-0.013 0 1.4278-3.3385 2.8444-6.7353 2.858-1.7096 0.01-7.7491 0.8785-13.421 1.937-17.364 3.2404-30.469 4.4536-30.469 2.8204zm-74.062-4.6477c0-1.1445 2.0201-1.6781 8.9063-2.3525 13.137-1.2864 30.323-3.5306 32.812-4.2846 1.5468-0.4685 4.0781-0.8464 5.625-0.84 1.5468 0.01 5.871-0.291 9.6093-0.6613 6.842-0.6777 9.6121 0.547 4.2188 1.8653-3.5579 0.8696-33.304 4.4672-39.564 4.7851-5.5501 0.2818-13.726 1.1577-18.561 1.9885-1.8973 0.326-3.0469 0.1371-3.0469-0.5005zm-427.08-3.0164c-1.6252-2.6297 20.37-5.144 52.551-6.007 31.93-0.8563 41.934-1.4493 49.209-2.9167 3.8621-0.779 9.9793-1.3629 13.594-1.2975 21.661 0.3916 132.21-1.0196 136.88-1.7474 3.0937-0.4817 9.1021-1.5331 13.352-2.3365 5.3595-1.013 14.121-1.4998 28.594-1.5886 11.477-0.07 22.254-0.5508 23.95-1.0673 2.2342-0.6806 3.4576-0.6284 4.4428 0.1893 2.2199 1.8422 0.4813 3.043-3.6113 2.494-2.0961-0.2812-4.4671-0.1669-5.2691 0.254-0.8019 0.4207-10.24 1.0542-20.973 1.4077-19.988 0.6582-24.474 1.1427-33.454 3.6138-7.6202 2.0968-23.003 3.3719-29.531 2.4481-3.0937-0.4378-9.8437-0.44-15-0.01-5.1562 0.4351-12.961 0.6434-17.344 0.4628-28.147-1.1597-83.05-0.2014-90 1.5709-1.8047 0.4603-18.258 1.2777-36.562 1.8164-18.305 0.5389-39.295 1.5981-46.645 2.3539-15.896 1.6346-23.328 1.7437-24.186 0.355zm291.33-2.8245c0.6059-1.827 8.8457-2.415 43.408-3.0974 15.984-0.3155 31.594-0.9899 34.688-1.4984 8.24-1.3545 17.597-1.2255 17.11 0.2359-0.6979 2.0934-7.1344 2.4931-62.728 3.8952-10.137 0.2557-21.689 0.7601-25.672 1.121-5.9915 0.5429-7.1661 0.4297-6.806-0.6563zm203.37-1.6979c-2.0628-1.2952-0.4795-2.6042 3.8485-3.1818 12.824-1.7115 35.531-5.3782 39.271-6.3412 4.8723-1.2546 7.3913-1.0851 7.3913 0.4973 0 1.384-2.2863 2.1522-12.188 4.0948-9.4624 1.8564-16.33 2.9296-25.312 3.9555-4.8984 0.5594-9.5391 1.1903-10.312 1.4019-0.7734 0.2117-1.9877 0.02-2.6982-0.4265zm-959.06-1.9365c-7.4104-0.412-23.231-1.0213-35.156-1.354-23.855-0.6654-52.065-2.2536-53.271-2.9991-0.42371-0.2618-9.9428-0.6927-21.154-0.9573-11.211-0.2647-23.132-0.7825-26.492-1.1507-3.36-0.3683-7.7897-0.3127-9.8438 0.1236-4.6104 0.9793-49.288 0.2347-57.65-0.9607-3.3566-0.4798-8.2081-1.3439-10.781-1.9201-2.5731-0.5762-8.0534-1.4933-12.178-2.0381-4.125-0.5449-10.875-1.6431-15-2.4406s-10.659-1.7382-14.521-2.0906c-5.5266-0.5042-7.0852-0.9777-7.3234-2.2245-0.58204-3.0457 10.267-2.4394 27.384 1.5303 10.39 2.4097 21.694 2.9737 22.406 1.118 0.32357-0.8432 1.5508-1.5203 2.7271-1.5046 1.9039 0.025 1.9586 0.1334 0.49816 0.9841-7.447 4.3374 11.324 6.2888 66.328 6.8952 23.719 0.2615 48.188 0.8928 54.375 1.4029 22.744 1.875 94.673 5.2812 102.19 4.8391 1.0312-0.061 7.9178 0.3564 15.304 0.927 10.162 0.785 17.916 0.7558 31.875-0.1201 10.146-0.6367 19.079-1.1358 19.853-1.1092 0.77344 0.026 4.9922-0.321 9.375-0.7725 4.3828-0.4514 14.429-1.0381 22.324-1.3037 7.8955-0.2657 14.713-0.704 15.15-0.974 1.1682-0.722 3.8522 0.5085 3.2465 1.4885-0.28528 0.4616-3.3415 0.8609-6.7915 0.8874-3.45 0.026-9.2259 0.4498-12.835 0.9408-19.946 2.7133-82.73 4.3012-110.04 2.7829zm853.14-0.8133c-1.8324-1.2234-0.3403-1.8566 7.0232-2.9805 11.978-1.8283 16.728-2.6522 24.249-4.2065 10.957-2.2643 20.168-4.2629 23.906-5.1871 1.8047-0.4462 4.9688-1.1786 7.0313-1.6275s4.5937-1.2683 5.625-1.8209c3.4427-1.8448 16.286-3.5693 17.504-2.3503 0.8286 0.8286 0.7714 1.1746-0.2384 1.4418-0.7308 0.1934-3.4947 1.0509-6.142 1.9057s-5.8684 1.5542-7.158 1.5542c-1.2895 0-4.6079 0.6656-7.3742 1.4793-6.5673 1.9315-10.457 2.9005-16.748 4.1719-4.3557 0.8804-10.889 2.5728-16.875 4.3713-0.7734 0.2323-6.4688 1.0704-12.656 1.8621-6.1875 0.7918-12.516 1.6188-14.062 1.8377-1.5468 0.2189-3.3848 0.016-4.0845-0.4512zm-710.1-4.0693c-2.2842-1.4116 0.7659-2.1663 8.3548-2.067 7.1251 0.094 9.841 0.614 8.7222 1.6722-0.74237 0.7021-16.009 1.0551-17.077 0.3948zm140.2-7.0332c-0.38797-0.096-11.463-0.3537-24.612-0.572-15.643-0.2598-24.878-0.7891-26.719-1.5315-5.1867-2.0921-0.61447-2.8305 11.779-1.9023 27.137 2.0326 124.83 0.7357 145.91-1.9368 10.356-1.313 90.279-2.2966 90.279-1.111 0 1.0564-13.939 1.7488-51.562 2.5612-13.664 0.2951-31.152 0.9527-38.863 1.4614-7.7107 0.5088-21.678 1.0987-31.038 1.3109-9.3601 0.2123-18.2 0.6824-19.644 1.0448-2.2295 0.5596-53.486 1.183-55.531 0.6753zm998.38-2.056c-2.1814-1.3481 1.0821-2.9256 8.8649-4.2848 9.467-1.6533 31.474-6.4047 41.109-8.8756 8.4247-2.1606 14.888-2.5554 14.328-0.87535-0.397 1.191-6.2009 2.8002-16.204 4.4927-3.6094 0.61069-7.8282 1.5144-9.375 2.0082-1.5469 0.4939-7.0313 1.7437-12.188 2.7773-5.1563 1.0337-12.117 2.5151-15.469 3.2921-9.617 2.2294-9.7939 2.2528-11.068 1.4655zm61.894-0.2486c0.1968-0.5906 2.4468-1.6617 5-2.3806s7.1734-2.1229 10.267-3.12c9.6-3.0941 13.594-3.4123 13.594-1.0833 0 1.5078-0.9148 2.2057-3.9844 3.0394-2.1914 0.5952-6.4921 1.8778-9.557 2.8501-6.2662 1.9879-15.896 2.4244-15.32 0.6944zm-1551.8-2.3c0-0.3174 1.3353-1.389 2.9673-2.3815 3.8991-2.3712 2.3524-2.774-11.874-3.093-22.085-0.49506-9.3611-2.1062 18.242-2.3098 24.647-0.18179 51.905-1.7032 72.227-4.0312 9.6028-1.1001 30-1.132 30-0.0469 0 1.1949-2.3894 1.7443-8.109 1.8645-2.6553 0.0562-7.9287 0.52772-11.719 1.0488-3.79 0.52097-12.681 1.3462-19.757 1.8338-18.749 1.2919-42.874 3.6584-54.165 5.3134-14.272 2.0919-17.812 2.4503-17.812 1.8022zm348.75-3.3c-5.4141-0.3618-23.344-0.9435-39.844-1.2925-32.748-0.6926-47.417-1.5465-73.125-4.2568-37.692-3.9738-42.589-4.1034-85.312-2.2571-18.491 0.79903-34.139 0.73406-35.018-0.1454-1.4492-1.4493 3.504-1.9117 26.421-2.4666 14.01-0.33928 33.91-0.91762 44.222-1.2853 12.629-0.45019 21.658-0.30881 27.656 0.43313 9.0641 1.1212 29.107 3.1214 46.875 4.6779 5.4141 0.47438 16.594 1.1172 24.844 1.4287 8.25 0.31144 23.438 0.97837 33.75 1.4821 10.312 0.50382 27.398 1.1087 37.969 1.3442 19.067 0.42482 23.438 0.88762 23.438 2.482 0 0.9302-16.949 0.8535-31.875-0.1443zm945-0.8942c0-0.3845-3.0586-0.928-6.7969-1.2075-3.7383-0.27961-11.046-1.1766-16.239-1.9936-7.0076-1.1022-11.782-1.2969-18.516-0.75488-4.9903 0.40172-9.0732 0.46575-9.0732 0.14222s-8.7539-0.8774-19.453-1.2309c-10.699-0.35354-21.562-1.0855-24.141-1.6267-2.5782-0.54113-12.914-1.3424-22.969-1.7807-19.321-0.84215-32.641-2.1117-40.048-3.8169-2.6325-0.60609-17.838-1.1626-36.827-1.3478-18.784-0.18318-34.237-0.74512-36.86-1.3403-2.4839-0.56372-15.351-1.4272-28.594-1.9188-13.243-0.49163-25.554-1.2908-27.359-1.7762-5.2999-1.4253-23.894-3.0473-36.954-3.2239-11.538-0.156-16.028-1.3354-11.072-2.9084 3.5644-1.1313 33.406-0.86147 36.776 0.33253 3.89 1.3783 18.182 2.6357 42.656 3.753 9.7968 0.44728 20.555 1.248 23.906 1.7794 9.2126 1.4606 31.221 2.0408 41.291 1.0883 10.55-0.99778 26.921 0.0197 44.901 2.7914 6.9288 1.0681 17.265 1.9941 22.969 2.0578 10.028 0.11203 27.676 1.9469 29.486 3.0658 0.4869 0.30094 9.2524 0.52913 19.479 0.5071 24.304-0.0525 22.932-0.10482 24.174 0.92606 0.5954 0.49415 5.9115 0.83372 11.814 0.75469 6.6227-0.0881 14.32 0.48056 20.106 1.4869 10.132 1.7621 10.7 1.7605 83.906-0.23906 34.866-0.95241 48.992-1.9407 55.312-3.8699 1.8047-0.55087 6.6563-1.6335 10.781-2.4058 23.096-4.3243 33.95-4.2533 27.187 0.17784-1.8726 1.2269-3.6918 1.4574-8.2331 1.043-4.7437-0.43275-7.521-0.03-14.912 2.163-11.945 3.544-25.384 5.8171-36.386 6.1546-4.8984 0.15028-22.212 0.64321-38.475 1.0954-16.263 0.45225-30.105 1.1535-30.76 1.5585-1.5389 0.9511-31.078 1.487-31.078 0.5638zm168.69-0.048c-1.6613-1.0267 1.206-2.2874 9.4386-4.1499 3.8672-0.87487 8.0003-1.9778 9.1848-2.4507 1.1843-0.47307 2.8599-0.86007 3.7235-0.86007 0.8635 0 4.3242-0.79987 7.6903-1.7776 3.3661-0.97772 9.4952-2.5018 13.62-3.387 4.125-0.88509 8.7231-1.9837 10.218-2.4412 1.4949-0.4574 4.0261-0.81862 5.625-0.8025l2.907 0.0291-3.726 2.2886c-2.0491 1.2587-5.6351 2.5368-7.9687 2.8402-2.3335 0.30346-5.9304 1.1212-7.9928 1.8174-2.0625 0.69619-6.7032 1.7691-10.312 2.3841-3.6094 0.615-7.5316 1.4963-8.7161 1.9584-1.1843 0.46219-3.4269 0.84028-4.9835 0.84028-1.5565 0-3.5694 0.39572-4.4732 0.87947-2.8554 1.5281-13.059 3.5576-14.235 2.8312zm-874.17-14.34c-14.953-0.4576-46.064-0.79641-69.135-0.7531-31.586 0.0591-45.48-0.27984-56.25-1.3736-7.8665-0.79894-25.271-1.8462-38.678-2.3274-13.406-0.48103-30.703-1.4076-38.438-2.0588-15.34-1.2917-32.17-1.3047-71.719-0.0553-24.909 0.78684-39.194 0.36103-52.969-1.5789-3.6094-0.50831-9.7266-1.3543-13.594-1.8799-3.8672-0.52566-23.484-1.0438-43.594-1.1515-20.109-0.10762-38.461-0.55078-40.781-0.98475-9.3409-1.7468-29.095-2.5822-62.201-2.6303-19.157-0.0281-41.58-0.43565-49.83-0.90619-22.655-1.2922-52.598-1.5209-69.375-0.52987-8.25 0.48731-16.266 0.84272-17.812 0.78975-11.783-0.40341-26.048-0.0469-35.582 0.88809-19.869 1.9492-37.543 0.96291-37.543-2.0953 0-1.8523 5.2584-2.3483 10.254-0.96731 2.8523 0.78853 6.9854 0.76331 16.465-0.1006 6.9609-0.6344 23.203-1.218 36.094-1.2968s30.398-0.48178 38.906-0.89541c8.5078-0.41362 15.891-0.71268 16.406-0.6645 0.51562 0.0478 8.1094 0.28979 16.875 0.5371 8.7656 0.24722 29.859 0.87459 46.875 1.3942 17.016 0.51957 40.918 0.96544 53.117 0.99075 12.199 0.0253 23.167 0.4185 24.375 0.87366 3.3758 1.2727 24.101 2.0992 62.196 2.4805 25.565 0.25594 37.276 0.74166 44.531 1.8471 23.694 3.6103 36.563 3.9652 81.094 2.2368 21.511-0.83494 30.66-0.83241 38.906 0.0113 5.9297 0.60646 24.07 1.517 40.312 2.0232 16.242 0.50635 31.122 1.3585 33.066 1.8938 1.9442 0.53531 3.943 0.72112 4.4418 0.41287 0.49877-0.30825 5.2362-0.0403 10.528 0.59485 6.0148 0.72234 27.19 1.2722 56.496 1.4671 25.781 0.17147 50.039 0.43687 53.906 0.58978 3.8672 0.15281 23.906 0.618 44.531 1.0337 20.625 0.41559 37.676 0.91772 37.891 1.1157 2.2098 2.0366-24.688 2.449-69.766 1.0697zm76.406-0.54788c0-0.42665 4.7461-1.3001 10.547-1.9411 5.8008-0.64097 15.82-1.9663 22.266-2.9453 13.244-2.0118 34.983-4.1887 55.781-5.586 7.7343-0.51957 19.336-1.3675 25.781-1.8842 15.073-1.2084 27.188-1.2052 27.188 0.009 0 0.51563-0.7383 0.95072-1.6406 0.96685-0.9024 0.0159-8.3906 0.45562-16.641 0.9765-8.25 0.52097-20.906 1.3108-28.125 1.7554-10.944 0.67388-27.828 2.3351-52.031 5.1197-2.3203 0.267-7.9313 0.90581-12.469 1.4197-4.5377 0.51393-10.627 1.3737-13.532 1.9106-6.308 1.1662-17.124 1.2928-17.124 0.20063zm171.33 0.13828c-2.3052-0.61481-2.0417-2.058 0.4688-2.5672 1.1601-0.23531 3.3478-0.69291 4.8614-1.0169 1.5136-0.324 14.17-0.76012 28.125-0.96919 25.954-0.38878 33.548-0.78646 45.06-2.3595 3.6093-0.49321 11.836-1.1111 18.281-1.3732 6.4453-0.26212 13.984-0.726 16.751-1.0308 3.9888-0.43931 4.9454-0.29081 4.6116 0.7156-0.2643 0.79678-2.6628 1.5024-6.4389 1.8942-3.3098 0.3434-8.1272 1.1098-10.705 1.7032-8.4997 1.9562-38.478 3.6846-71.719 4.1353-12.117 0.16425-23.297 0.52528-24.844 0.80231-1.5469 0.27703-3.5508 0.30675-4.4532 0.0656zm690.43-1.8345c0.8665-0.86653 2.2041-1.2775 3.0727-0.94415 2.2087 0.8475 0.8149 2.4786-2.1179 2.4786-2.3051 0-2.3758-0.11353-0.9548-1.5344zm-240.54-21.069c-1.341-1.9146-1.9589-1.9685-19.038-1.6619-9.7084 0.17419-28.198-0.0394-41.089-0.47522-12.891-0.43556-28.078-0.64537-33.75-0.46612-5.6719 0.17916-12.422 0.21956-15 0.09-7.4243-0.37369-84.646-1.0822-161.25-1.4797-54.79-0.28425-71.036-0.63487-73.592-1.5879-4.4054-1.6432-14.632-1.5248-30.422 0.3524-8.4017 0.99881-14.267 1.2714-16.406 0.76247-1.8314-0.43556-11.346-0.8985-21.142-1.0286-9.7969-0.13013-20.766-0.38044-24.375-0.55613-3.6094-0.17569-26.539-0.55209-50.955-0.83644-24.416-0.28434-44.848-0.798-45.403-1.1413-0.5556-0.34341-26.817-0.70012-58.359-0.79266-31.542-0.0928-57.858-0.48243-58.479-0.86634-0.6211-0.38391-9.6482-0.67209-20.06-0.64031-13.095 0.0403-21.602-0.39431-27.596-1.4084-8.1176-1.3734-8.9466-1.3605-13.125 0.20428-4.4709 1.6744-45.226 2.5753-96.804 2.14-8.5078-0.0722-16.734-0.11953-18.281-0.10621-46.024 0.39778-164.55-0.38569-188.91-1.2487-9.5391-0.33806-20.086-0.48469-23.438-0.32597-9.3252 0.44156-56.868 0.18441-63.75-0.34491-10.496-0.80728-129.85-3.9593-149.06-3.9368-4.8984 0.009-14.812 0.0919-22.031 0.19191-7.2188 0.0997-22.406 0.306-33.75 0.45825-76.847 1.0314-97.356-0.16491-92.222-5.3797 2.6964-2.7383 114.58-3.628 188.78-1.501 27.29 0.78225 48.288 0.94632 57.188 0.44682 7.7344-0.43407 17.016-0.74935 20.625-0.7005 3.6094 0.0487 29.977 0.25978 58.594 0.46875 42.945 0.31359 52.441 0.61462 54.375 1.7237 2.5334 1.4525 59.493 3.1038 90.938 2.6362 35.083-0.52153 140.55 0.25932 148.78 1.1016 6.5003 0.66506 9.5396 0.6134 11.373-0.19322 1.6796-0.73913 10.049-1.1196 25.47-1.1578 12.633-0.0309 35.414-0.15881 50.625-0.2834 58.59-0.47991 145.5 0.87919 149.53 2.3382 5.0062 1.8141 40.173 3.4096 56.719 2.5733 20.278-1.0247 82.962-1.1126 94.219-0.13219 11.652 1.0149 41.95 1.3672 180.47 2.098 53.367 0.28163 104.41 0.76144 113.44 1.0664 19.645 0.66375 20.989 0.66984 47.612 0.21563 25.272-0.43125 22.95 1.5574 22.307-19.107-0.2728-8.7656-0.6879-25.852-0.9223-37.969-0.2345-12.117-0.868-23.93-1.4078-26.25-2.8775-12.369 2.87-23.863 6.5928-13.184 0.8803 2.5254 1.4013 2.8041 5.7184 3.0592 8.5919 0.50784 8.6994 4.988 0.149 6.2111l-4.5811 0.65531v4.5737c0 4.8235 0.3397 5.234 5.625 6.7967 4.086 1.2081 4.542 5.0126 0.6009 5.0126-1.5459 0-3.4737 0.66295-4.284 1.4732-3.4639 3.4639-0.3118 8.8393 5.1831 8.8393 2.8992 0 4.897 2.0008 4.4017 4.4081-0.276 1.3414-1.1293 1.637-4.1782 1.4475-5.0003-0.31076-6.1198 1.1329-5.7596 7.4276l0.2861 4.998 4.3784 0.2827c7.7548 0.50068 8.618 4.9902 1.3132 6.8296-7.7196 1.9438-8.4006 9.2861-0.949 10.231 5.4618 0.69291 5.6692 3.8813 0.4267 6.5558-4.4047 2.2471-4.3935 2.2244-5.0047 10.085l-0.4556 5.8594h10.064 10.064l-0.3166-19.922c-0.1741-10.957-0.765-21.285-1.3129-22.95-0.548-1.6657-0.7472-3.4316-0.4428-3.9241 1.2385-2.004 3.4236-24.821 3.5412-36.977 0.1277-13.202 0.7442-15.602 4.0074-15.602 3.2438 0 4.242 2.7172 3.5548 9.6766-0.8972 9.0853-0.8055 43.361 0.1546 57.823 0.9623 14.495 0.9758 19.091 0.07 24.005-1.4283 7.753-1.1391 7.8699 19.456 7.8668 9.9076 0 23.498 0.43941 30.201 0.97988 23.756 1.9155 76.385 3.4264 87.188 2.5031 9.2475-0.7904 26.311-0.4169 76.875 1.6829 4.125 0.17137 21.747 0.61125 39.161 0.97762 31.512 0.6631 34.252 1.004 31.355 3.9011-1.9304 1.9304-131.51 2.2972-163.33 0.46228-11.344-0.65409-43.282-1.2691-70.974-1.3667l-50.348-0.17747-2.8167 2.0825c-3.4919 2.5817-4.3019 2.5956-6.0474 0.10369zm-8.564-111.44c-1.0313-0.45271-5.7852-0.85276-10.564-0.88899-27.612-0.2094-44.448-14.229-33.656-28.025 5.1998-6.6472 61.592-13.058 72.814-8.2778 10.427 4.4412 16.711 20.463 10.473 26.701-6.9206 6.9206-31.912 13.632-39.067 10.491zm16.869-9.0059c4.7884-3.1375 2.4879-3.6636-16.478-3.7681-17.816-0.0982-18.388-0.16301-26.889-3.0469-10.179-3.4529-10.533-3.4928-10.533-1.1863 0 3.3893 15.742 9.4623 24.186 9.3304 2.2163-0.0346 4.3256 0.24914 4.6875 0.63055 1.3117 1.3823 22.453-0.27313 25.027-1.9597zm-5.6189-10.664c4.125-0.54102 8.7656-1.3651 10.312-1.8312 1.5468-0.46617 3.9726-1.1044 5.3906-1.4184 4.2109-0.93234 2.9745-2.8903-3.75-5.9384-11.167-5.0618-56.484-2.5874-56.484 3.0842 0 5.8577 22.692 8.9681 44.531 6.1038zm-1260-100.24c-1.0312-0.44735-4.0297-1.109-6.6633-1.4704-4.7995-0.65855-10.68-3.475-10.68-5.1151 0-0.48115-1.582-1.8286-3.5156-2.9943-11.121-6.7045-37.867-33.738-46.457-46.956-1.4461-2.2253-4.3044-6.1553-6.3517-8.7334s-6.923-9.7069-10.835-15.842c-10.723-16.816-19.668-28.433-24.084-31.278-19.078-12.29-25.816-22.91-15.786-24.88 6.2451-1.2269 7.3112-0.36595 33.317 26.906 6.7736 7.1035 11.837 16.03 11.837 20.868 0 0.84469 1.2213 4.1098 2.714 7.2558s3.3667 7.265 4.1644 9.1535c5.2941 12.533 44.868 49.642 62.028 58.165l6.5625 3.2595 17.951-0.68819c20.333-0.77949 19.111-0.39848 25.402-7.9201 2.5877-3.0938 6.2318-7.0789 8.098-8.8558 4.7715-4.5432 4.4667-5.4256-5.4302-15.718-10.164-10.57-14.474-15.929-20.2-25.114-2.2502-3.6094-5.078-8.0617-6.2839-9.8941-1.206-1.8324-2.1927-3.7014-2.1927-4.1532 0-0.45187-2.2858-5.4917-5.0797-11.2-2.7938-5.7079-6.7293-13.964-8.7456-18.347-2.0163-4.3828-4.3504-8.5306-5.1869-9.2173-0.83653-0.6867-1.7864-3.0189-2.1109-5.1826-0.47964-3.1985-2.0221-5.552-8.2491-12.587-11.266-12.727-13.753-15.785-13.753-16.911 0-0.55755-1.6875-2.3698-3.75-4.0273s-3.75-3.7492-3.75-4.6484c0-0.89911-1.1787-2.6265-2.6193-3.8387-3.6292-3.0537-4.2906-4.3832-2.9716-5.9725 7.4951-9.031 49.653 40.111 49.653 57.879 0 5.5366 20.324 42.944 23.332 42.944 0.40931 0 3.4481 3.2324 6.753 7.183 30.06 35.935 48.81 52.778 58.783 52.808 8.2502 0.0245 27.357-5.284 39.95-11.1l7.4114-3.4226 3.3043-7.0312c1.8174-3.8672 4.494-8.5685 5.948-10.447 3.48-4.4967 3.402-4.9539-1.8094-10.615-9.7315-10.572-25.295-33.803-32.366-48.312-6.6726-13.692-20.369-52.195-20.369-57.262 0-0.65179-1.0799-3.8843-2.3997-7.1834-2.79-6.974-2.7695-11.024 0.056-11.024 1.4165 0 2.1734 1.0317 3.0951 4.2188 0.67105 2.3203 2.0008 5.9062 2.9549 7.9688 0.95416 2.0625 3.3102 8.7899 5.2356 14.95 3.7561 12.016 9.1368 24.501 13.027 30.226 1.3232 1.9472 2.4058 4.085 2.4058 4.7506 0 3.2617 16.084 28.108 24.522 37.881 6.1871 7.1661 30.623 23.287 39.581 26.113 4.0444 1.2758 7.6814 0.43183 21.209-4.9218 3.8672-1.5304 9.7443-3.7805 13.06-5.0003 7.441-2.7371 7.5336-2.8364 11.678-12.515 4.1843-9.7712 5.5613-11.409 9.0132-10.718 2.3326 0.46652 6.5609-6.306 6.5609-10.509 0-0.91641 5.1766-8.4808 8.0622-11.781 8.6933-9.9423 15.58-35.334 10.479-38.638-2.7988-1.8128-4.0707 0.53914-2.0977 3.8791 2.4131 4.085 1.3958 5.4807-4.4125 6.0542-5.6063 0.55353-6.5343 0.0673-9.8267-5.1482-1.602-2.5378-2.8832-3.5294-4.56-3.5294-3.083 0-3.0697 2.9259 0.0362 7.9688 4.0542 6.5824 3.0622 22.031-1.4147 22.031-1.502 0-1.839-0.79879-2.0764-4.9219-0.28326-4.9199-0.28455-4.9218-3.2774-4.6346-4.6961 0.45057-6.8453-2.3524-6.8695-8.9592-0.0123-3.3566-0.91136-7.8668-2.3827-11.953-1.2996-3.6094-3.4046-9.6888-4.6778-13.51-1.2731-3.821-2.6806-7.4069-3.1276-7.9688-0.747-0.93873-9.5599-17.736-17.013-32.428-1.7003-3.3516-4.2755-7.0647-5.7227-8.2514-2.0466-1.6783-2.62-2.928-2.5806-5.625 0.0552-3.7812-2.2302-16.135-3.3073-17.878-1.1188-1.8103-4.4735-14.17-6.1387-22.616l-1.57-7.9637-3.5463-0.57643c-3.9175-0.63677-5.1901-1.9927-5.2116-5.5531-0.007-1.3032-0.69371-3.3394-1.524-4.5249-1.2298-1.7558-1.387-3.4891-0.84805-9.3492 0.68417-7.4391 1.4593-9.8143 8.6192-26.413 2.3354-5.4141 5.2202-13.43 6.4107-17.812 4.8031-17.683 7.6366-21.709 11.878-16.875 2.3646 2.6947 2.7891 2.8125 10.138 2.8125 7.4105 0 7.7996 0.111 11.503 3.2812 4.4315 3.7932 3.2358 3.6716 18.965 1.9276 18.113-2.0084 37.949-4.0394 50.625-5.1835 28.149-2.5406 41.171-3.9057 41.97-4.3997 0.47585-0.29409 6.4147-0.86621 13.197-1.2714 6.7827-0.40516 14.231-1.1857 16.551-1.7346 2.3203-0.54885 12.867-1.453 23.438-2.0091 10.57-0.55615 22.594-1.3699 26.719-1.8082 15.186-1.6138 52.247-5.1804 93.75-9.022 9.2812-0.85908 21.221-2.3564 26.532-3.3274 5.3113-0.971 11.169-1.7655 13.017-1.7655 1.8479 0 5.9398-0.41497 9.093-0.92213 7.9947-1.2859 17.954-2.669 30.577-4.2466 5.9297-0.74104 13.102-2.0214 15.938-2.8453 2.8359-0.82384 9.375-2.0733 14.531-2.7765 5.1563-0.70325 11.906-1.8988 15-2.6567 3.0938-0.75793 8.6935-1.8446 12.444-2.4148 3.7503-0.57023 10.612-2.297 15.248-3.8374 4.6362-1.5403 9.8724-2.8006 11.636-2.8006 1.7634 0 4.3938-0.47099 5.8454-1.0466 1.4515-0.57566 6.0141-1.6473 10.139-2.3814 4.125-0.73411 11.93-2.4003 17.344-3.7028 5.414-1.3024 13.219-2.9973 17.344-3.7665 4.125-0.76914 9.6094-1.9856 12.188-2.7033 7.5132-2.0914 16.344-4.3502 23.906-6.1151 3.8672-0.90249 10.828-2.6824 15.469-3.9554 4.6406-1.273 12.867-3.4404 18.281-4.8164s12.586-3.3176 15.938-4.3147c3.3515-0.99704 7.9922-2.2848 10.312-2.8617 4.1148-1.023 21.099-6.4393 26.719-8.5208 1.5469-0.57291 6.6094-2.4222 11.25-4.1095s12.445-4.6559 17.344-6.5969c4.8984-1.941 10.594-3.852 12.656-4.2466 2.0625-0.39467 6.1754-1.5722 9.1398-2.6168 4.4013-1.5509 8.7-2.0001 23.438-2.4495 30.788-0.93878 58.682-3.9841 60.198-6.5722 2.9623-5.055 5.412-7.0366 8.6987-7.0366 1.8363 0 5.7012-1.0978 8.5885-2.4396s7.3591-3.4267 9.9372-4.6331 8.2735-3.8396 12.656-5.8516c7.1261-3.2713 16.187-9.2804 25.128-16.665 4.4789-3.6991 10.849-12.297 15.361-20.732 2.1578-4.0343 4.4775-7.6724 5.1549-8.0847 4.8186-2.9331-24.518-36.865-37.592-43.48-1.5922-0.80562-3.5277-1.9876-4.3011-2.6266-2.1464-1.7732-19.52-10.8-20.786-10.8-0.6131 0-5.1518-2.0682-10.086-4.596-11.157-5.7158-19.5-9.1195-26.784-10.928-3.0938-0.76799-7.5235-2.1827-9.8438-3.1439-7.6007-3.1484-21.237-6.7725-31.875-8.4712-2.8359-0.45285-8.1094-1.3066-11.719-1.8973-3.6094-0.59068-13.524-1.1782-22.031-1.3057-23.601-0.35358-27.595-6.5665-13.64-21.221 2.2095-2.3203 6.0226-6.75 8.4735-9.8438 11.844-14.95 17.99-20.836 22.458-21.506 5.1903-0.77833 5.563-1.3233 3.7961-5.5521-2.341-5.6026-1.842-7.6357 2.833-11.544 2.3282-1.9461 7.2785-7.086 11.001-11.422 3.7223-4.3359 7.8377-8.2566 9.1456-8.7125 1.3078-0.45592 2.7911-1.7706 3.2962-2.9216 0.8377-1.9094 1.7407-2.1378 10.313-2.6079 5.1671-0.28337 9.9482-0.85723 10.625-1.2753 1.1707-0.72351 15.529 0.38813 29.668 2.2969 3.6093 0.48727 10.136 1.135 14.504 1.4395 4.3678 0.30445 8.7667 0.99517 9.7752 1.5349 1.0086 0.53977 4.1849 1.2851 7.0586 1.6563 29.191 3.7708 76.925 21.236 106.94 39.128 2.8359 1.6904 6.0503 3.0745 7.1432 3.0758 1.0927 0.0013 4.0459 1.6338 6.5625 3.6276 2.5165 1.9939 6.2631 4.4884 8.3256 5.5434s4.6007 2.6932 5.6407 3.6404c1.0399 0.94724 3.4894 2.8279 5.4434 4.1792 15.13 10.463 51.251 48.235 51.262 53.605 0 1.2349 6.597 11.263 9.3709 14.25 0.9576 1.0312 3.1428 4.2612 4.8558 7.1778 1.7131 2.9165 5.1855 8.4009 7.7165 12.188 2.5309 3.7866 5.5292 9.2051 6.6627 12.041 2.0272 5.0719 3.8201 8.9989 10.923 23.925 1.9678 4.1354 4.0231 9.9271 4.5672 12.871 1.1516 6.23 8.3785 28.94 10.539 33.117 0.8129 1.572 2.1187 5.9965 2.9017 9.8321s2.6549 12.669 4.1599 19.63c1.5049 6.9609 3.2333 15.82 3.841 19.688 0.6076 3.8672 1.491 8.9297 1.9631 11.25s1.3221 7.5938 1.8887 11.719c0.5667 4.125 1.6308 11.086 2.3648 15.469 0.7338 4.3828 1.3491 11.555 1.3673 15.938 0.018 4.3828 0.049 8.7542 0.068 9.7143 0.019 0.96004-0.6738 2.5284-1.5397 3.4851-1.172 1.295-1.6388 3.8437-1.8266 9.9732-0.1387 4.5285-0.7258 13.845-1.3046 20.704-1.5065 17.852-0.5056 36.652 4.6765 87.843 2.5434 25.124 1.8404 22.969 7.4927 22.969 4.5097 0 10.248 2.0233 10.248 3.6134 0 0.41398 1.3711 2.8212 3.0469 5.3494 2.6312 3.9696 3.1282 5.6861 3.6437 12.583 0.3282 4.3923 1.0642 11.319 1.6356 15.394 0.6685 4.7665 0.7299 8.6107 0.1723 10.781-0.4765 1.8554-1.4014 5.8659-2.0552 8.9123-0.654 3.0464-2.0712 6.6323-3.1495 7.9688-1.0783 1.3364-2.4652 3.5962-3.0821 5.0218s-2.288 3.0379-3.7135 3.5829c-1.4256 0.54504-6.1779 2.8163-10.561 5.0473-4.3828 2.231-10.5 4.546-13.594 5.1444-3.0938 0.59847-8.3672 1.7031-11.719 2.4547-6.9905 1.5677-47.262 3.3727-50.214 2.2507-1.0684-0.40622-4.0259-0.96335-6.5723-1.2381-25.895-2.7937-35.532-13.406-39.718-43.74-0.4625-3.3516-1.2994-8.3744-1.8598-11.162-1.2396-6.1665 0.3849-9.5366 8.8371-18.333l5.3371-5.5546-1.129-5.2095c-1.7789-8.2077-3.6741-17.878-4.6039-23.491-1.1829-7.1412-2.4293-12.293-5.1996-21.493-1.3083-4.3448-2.3838-9.1963-2.39-10.781-0.014-3.6046-5.1371-15.293-9.6742-22.074-5.3661-8.0195-4.5879-20.031 1.1997-18.518 12.32 3.2218 44.301-9.3827 55.995-22.069 3.7339-4.0507 8.8585-8.1896 10.14-8.1896 1.2999 0-0.7615 7.9935-2.8907 11.21-1.8588 2.8078-12.458 12.908-20.061 19.117-2.3598 1.9271-2.3089 4.3668 0.4003 19.179 3.3581 18.359 5.8856 37.187 7.5757 56.433 0.6434 7.327 3.8914 22.726 5.6823 26.941 0.7168 1.6868 1.0431 4.2665 0.7348 5.8081-1.4953 7.4767 16.318 8.9066 34.941 2.8048 7.694-2.521 8.5431-3.6766 8.214-11.179-0.5966-13.601-4.547-47.549-6.0802-52.251-0.5438-1.6677-0.7272-3.856-0.4076-4.8629s0.069-10.822-0.5556-21.812c-0.6251-10.989-1.1046-23.555-1.0657-27.924 0.047-5.3006-0.3907-8.8353-1.3162-10.625-1.0367-2.0047-1.152-3.3557-0.4567-5.35 1.0394-2.9818 0.1189-10.902-1.8162-15.625-2.7983-6.8304 3.0484-9.9421 10.123-5.3874 4.3807 2.8205 10.164-0.42641 14.5-8.1397 1.1363-2.0218 3.434-4.4832 5.1061-5.4698 3.3921-2.0014 3.6484-7.3121 0.8169-16.929-0.6832-2.3203-1.5079-7.1278-1.8326-10.683-0.6065-6.6411-1.561-11.537-3.8736-19.868-0.7282-2.6234-1.3241-6.3832-1.3241-8.3551s-0.6187-5.7317-1.3747-8.3551c-0.7561-2.6234-2.2114-9.5365-3.2339-15.362-1.8925-10.783-6.8131-28.001-10.904-38.158-1.2463-3.0938-3.3531-9.4084-4.6816-14.033-1.3286-4.6241-4.0251-11.796-5.9921-15.938-1.9671-4.1415-4.5219-9.8503-5.6773-12.686-1.1555-2.8359-2.4683-5.6139-2.9172-6.1733-0.449-0.55937-4.2302-7.3094-8.4027-15-4.1724-7.6906-8.5341-15.038-9.6927-16.327-1.1586-1.2891-4.1845-5.6788-6.7243-9.755s-6.7553-9.7715-9.3677-12.656c-2.6123-2.8847-7.3371-8.409-10.499-12.276-7.9918-9.7732-19.258-21.195-26.374-26.735-3.2988-2.5689-7.5701-6.1474-9.4919-7.952-1.9218-1.8047-5.7619-4.8854-8.5336-6.846-2.7716-1.9606-8.5777-6.0687-12.902-9.129-4.3245-3.0603-11.84-7.7843-16.702-10.498-4.8615-2.7134-11.237-6.2841-14.168-7.9348-7.4393-4.1895-32.316-13.936-39.055-15.302-3.0802-0.62427-9.1974-2.3131-13.594-3.7529-4.3965-1.4398-11.369-3.1168-15.494-3.7266s-9.8144-1.7054-12.643-2.4347c-2.8286-0.72926-11.519-1.7312-19.312-2.2266-7.7929-0.49537-15.315-1.3363-16.715-1.8687-1.4003-0.53242-5.0293-0.96804-8.0644-0.96804-3.035 0-7.9477-0.63281-10.917-1.4062-9.1034-2.3711-25.29-1.9439-26.64 0.70312-0.5917 1.1602-3.8206 4.9125-7.1753 8.3386-7.7039 7.8676-7.4855 8.604 2.6186 8.8301 18.795 0.42061 42.962 2.2382 47.746 3.5909 2.8316 0.80068 6.6284 1.2319 8.4375 0.95826 3.3523-0.50707 12.759 1.2785 29.539 5.6072 5.1562 1.3301 10.315 2.4234 11.465 2.4295 1.9541 0.01037 4.2288 0.63652 19.942 5.4892 3.3516 1.0351 9.2578 3.2015 13.125 4.8143s11.874 4.6755 17.792 6.806c5.9185 2.1305 12.062 4.7448 13.652 5.8095 1.5902 1.0647 6.1044 3.6208 10.032 5.6803 4.4116 2.3135 7.7467 4.7711 8.7273 6.4312 0.873 1.4778 3.3289 3.4955 5.4577 4.4839 5.315 2.4678 17.85 12.231 18.229 14.198 0.5362 2.7837-4.1533 3.8528-7.6613 1.7466-1.6209-0.97314-4.172-2.0588-5.6691-2.4125-1.4972-0.35374-4.4503-1.8278-6.5625-3.2758-7.9497-5.4496-39.205-19.038-46.497-20.214-2.3203-0.37437-5.1064-1.4956-6.1913-2.4916s-4.038-2.1867-6.5625-2.6459c-2.5245-0.45925-9.0196-2.101-14.434-3.6483-5.4141-1.5473-12.375-3.3011-15.469-3.8973-3.0937-0.59623-9.2109-1.8793-13.594-2.8512-23.965-5.3145-63.709-6.9523-100.51-4.142l-9.1064 0.69535-9.6436 10.733c-13.272 14.771-13.213 15.387 1.2346 12.916 12.325-2.1077 59.63-2.9594 77.247-1.3907 7.2188 0.64275 15.656 1.3099 18.75 1.4825 6.002 0.33489 11.435 1.3366 23.438 4.3213 4.125 1.0258 11.086 2.4871 15.469 3.2475 4.3828 0.76035 9.8672 1.7216 12.188 2.136 5.0501 0.90203 14.564 4.2383 17.417 6.108 1.1266 0.73828 6.4494 3.222 11.828 5.5195 17.973 7.6767 44.705 23.727 61.285 36.798 4.6747 3.6851 13.323 11.553 19.219 17.485 5.8955 5.9318 11.829 11.485 13.185 12.341 1.3562 0.85594 3.8525 4.1776 5.5476 7.3815 1.695 3.2039 4.9655 8.9462 7.2677 12.761 2.3021 3.8146 5.1913 9.5099 6.4204 12.656 1.229 3.1464 3.6843 7.8315 5.456 10.412 1.7717 2.58 4.3249 7.6425 5.6736 11.25 2.7749 7.4225 7.7699 20.264 11.668 29.997 1.4456 3.6094 4.199 13.102 6.1188 21.094 1.9198 7.9922 4.5373 18.088 5.8167 22.436 2.5153 8.5472 3.5355 13.527 5.0075 24.439 0.5216 3.8672 1.422 9.9844 2.0009 13.594 2.4467 15.257 2.1592 22.15-1.0948 26.245-1.7349 2.1832-2.7486 4.3834-2.4847 5.3929 0.2807 1.0733-0.3395 2.2197-1.6736 3.0939-1.1658 0.76382-2.5974 2.4375-3.1814 3.7194-0.8232 1.8068-1.7672 2.3306-4.1998 2.3306-2.1554 0-3.8447 0.75222-5.3947 2.4023-1.2413 1.3212-3.7407 3.2879-5.5541 4.3704-1.8135 1.0825-4.141 2.6772-5.1722 3.5438-1.0313 0.86659-4.4063 2.5388-7.5 3.7161-3.0938 1.1773-6.5906 3.1847-7.7707 4.4609-2.4081 2.6042-8.3325 4.5339-19.418 6.3246-7.9609 1.286-13.87 3.3567-16.582 5.8101-1.3246 1.1988-2.1652 1.2931-4.253 0.47685-1.4311-0.55952-4.5005-1.4904-6.8208-2.0685-2.3203-0.57818-5.7412-2.041-7.602-3.2508-2.0399-1.3262-6.6926-2.8012-11.719-3.715-4.5845-0.83351-10.372-1.9216-12.86-2.4181-2.4885-0.49644-8.1838-0.92098-12.656-0.94344-4.4723-0.0225-10.03-0.41655-12.35-0.87577-2.9146-0.57683-6.2475-0.43527-10.781 0.45792-3.8732 0.76304-12.133 1.2671-20.156 1.2301-7.4766-0.0345-19.159 0.26146-25.96 0.65771-8.9956 0.52406-13.511 0.40017-16.563-0.45446-4.0716-1.14-4.4317-1.0604-12.114 2.6752-4.3548 2.1176-8.503 3.8522-9.2181 3.8547-2.7849 0.01-34.899 12.148-38.209 14.442-1.9275 1.3357-4.4035 2.4286-5.5024 2.4286s-3.1767 0.44815-4.6174 0.99591c-9.0323 3.4341-31.606 5.6911-45.784 4.5777-6.313-0.49575-13.815-0.30808-22.969 0.57459-7.4766 0.72095-16.969 1.5404-21.094 1.8211-12.434 0.84592-27.155 2.8272-38.906 5.2364-2.3203 0.4757-11.602 1.7006-20.625 2.722-20.044 2.269-28.26 3.5526-33.683 5.263-2.2833 0.7201-6.0801 1.3277-8.4375 1.3501-2.3574 0.0225-6.1846 0.45305-8.5049 0.95686s-6.75 1.2863-9.8437 1.7389c-6.8248 0.99842-17.142 3.3564-23.279 5.3201-2.491 0.7971-8.1106 1.8188-12.488 2.2704-4.3775 0.45165-9.3004 1.2196-10.94 1.7066-1.6393 0.487-6.1446 1.3715-10.012 1.9655-3.8672 0.59405-9.8254 1.733-13.24 2.5309-3.415 0.79795-9.9541 2.0728-14.531 2.8331-4.5771 0.76024-11.697 1.9543-15.822 2.6534-4.125 0.69913-10.059 1.6836-13.186 2.1877-3.1272 0.50411-8.7085 2.2029-12.403 3.775s-10.206 3.5476-14.47 4.39c-9.9393 1.9634-21.353 4.8386-27.91 7.0308-2.8359 0.94816-7.4766 2.2348-10.312 2.8592-2.8359 0.62438-7.8984 1.8671-11.25 2.7616-10.357 2.764-20.802 5.4298-27.656 7.0583-3.6094 0.8575-11.414 3.1571-17.344 5.1101-15.231 5.0167-32.158 10.02-39.844 11.777-3.6094 0.82504-7.8281 1.9259-9.375 2.4463-4.0083 1.3485-9.7552 3.0545-21.562 6.401-5.6719 1.6076-13.898 3.971-18.281 5.2521-4.3828 1.2811-11.133 3.1495-15 4.152-3.8672 1.0025-12.516 3.7561-19.219 6.119-6.7031 2.3629-16.406 5.3379-21.562 6.6111-5.1562 1.2732-12.75 3.3145-16.875 4.5362s-9.1253 2.4978-11.112 2.8356c-3.3282 0.56605-10.408 6.6887-13.014 11.255-1.0873 1.9052-1.1 23.06-0.0231 38.457 1.2881 18.418 1.1669 19.01-5.1044 24.941l-5.1459 4.8668-11.394-0.57051c-13.04-0.65291-16.413-1.4474-20.405-4.806-5.4382-4.576-8.1867-2.3916-16.872 13.409-9.7004 17.648-17.949 26.379-24.922 26.379-1.6737 0-6.3259 1.6513-10.338 3.6696-18.22 9.1651-23.606 9.6635-35.609 3.2957-9.4012-4.9874-11.282-3.8241-19.35 11.965-6.0126 11.768-10.726 17.76-16.013 20.359-6.436 3.1634-16.581 6.5382-24.127 8.0258-3.9485 0.77836-8.3782 1.899-9.8438 2.4903-1.4744 0.59487-8.7078 1.1663-16.193 1.2793l-13.529 0.20424-3.8152-3.4958c-3.1905-2.9234-14.2-9.356-16.013-9.356-0.29292 0-3.4266 2.7181-6.9638 6.0402-5.0805 4.7716-7.4848 6.3223-11.447 7.3833-11.338 3.0361-35.849 5.2367-39.704 3.5646zm289.37-104.64c7.724-2.1855 7.8067-2.377 7.8526-18.204 0.0218-7.5241 0.38519-15.262 0.80746-17.196 0.7623-3.4906-1.9148-5.4014-3.6451-2.6016-0.31443 0.50875-2.3413 0.67048-4.5716 0.36478-5.3091-0.72769-12.035 6.0272-11.725 11.776 0.11103 2.0613-0.59855 4.6147-1.8432 6.6327-4.3604 7.0698 0.26474 22.933 6.183 21.207 0.89649-0.26152 4.0204-1.1518 6.9421-1.9785zm967.81-34.659c16.863-4.39 17.402-4.8295 15.928-12.986-0.3902-2.1603-0.8503-6.6699-1.0222-10.022-1.0053-19.59-0.2565-18.861-15.533-15.134-7.0642 1.7235-16.848 3.2629-25.155 3.958-15.165 1.269-22.484 14.625-14.607 26.658 0.68 1.0388 1.536 3.2531 1.9022 4.9207 1.4582 6.6387 18.547 7.7949 38.486 2.6039zm-30.234-4.7105c-4.3235-3.1317-2.8111-5.7609 3.75-6.5192 16.323-1.8867 15.446-1.9592 16.169 1.3357 0.8055 3.6672 0.5922 3.8769-4.9102 4.8265-10.829 1.8688-12.855 1.917-15.009 0.35699zm3.0469-14.47-5.625-0.54552-0.2911-3.5156c-0.3179-3.8426 2.2081-4.8134 6.52-2.5058 1.4217 0.76087 2.7981 0.64531 5.5823-0.46875 6.9901-2.7969 9.2825-2.1449 9.2825 2.6398 0 5.5965-0.7859 5.8198-15.469 4.3958zm-982.47-5.7371c4.6218-1.5663 11.989-3.4861 16.372-4.2662 4.7529-0.84598 10.704-2.7402 14.746-4.6938 8.3187-4.0203 16.715-6.8885 20.254-6.9192 1.4613-0.0127 10.11-2.9392 19.219-6.5033s20.781-8.0114 25.937-9.8827c11.854-4.3023 13.013-4.7537 29.947-11.667 7.7052-3.1458 14.407-5.7197 14.893-5.7197 1.381 0 30.447-12.96 36.722-16.373 5.8098-3.1605 27.601-12.085 37.5-15.359 3.0938-1.023 9-3.1198 13.125-4.6595 12.255-4.5742 15.116-5.5317 33.75-11.295 21.504-6.6511 28.933-8.7641 41.406-11.777 5.242-1.2661 13.047-3.3552 17.344-4.6423 27.474-8.2293 54.001-15.444 65.469-17.806 7.0413-1.4502 17.354-4.2229 31.406-8.4443 4.125-1.2392 10.453-2.9986 14.062-3.9099 3.6093-0.9113 10.359-2.6601 15-3.8861 4.6406-1.2261 12.867-3.0392 18.281-4.0292 5.4141-0.98999 15.117-2.8994 21.562-4.2431 6.4453-1.3437 14.25-2.6612 17.344-2.9278 3.0937-0.26663 7.3125-1.0875 9.375-1.8242 2.0625-0.73665 6.2812-1.7297 9.375-2.2068 20.477-3.1576 48.27-8.6015 71.719-14.048 37.076-8.6118 36.599-8.5836 38.995-2.3111 2.1599 5.6554-2.0991 7.2612-22.12 8.3405-2.8359 0.15288-8.7422 0.95642-13.125 1.7856-4.3828 0.82923-13.031 2.3458-19.219 3.3702-6.1875 1.0244-13.57 2.4663-16.406 3.2044-2.8359 0.73806-8.3024 2.0376-12.148 2.8879-3.8453 0.85027-7.7416 1.9474-8.6585 2.4381-0.9169 0.49067-3.466 1.2498-5.6648 1.6869-2.1988 0.43709-7.1618 1.656-11.029 2.7086-3.8672 1.0527-11.461 2.6021-16.875 3.4431-5.4141 0.84103-12.375 2.2009-15.469 3.022-3.0938 0.82105-8.5782 2.0612-12.188 2.7558-3.6094 0.69463-10.148 2.1067-14.531 3.1379-4.3828 1.0312-12.609 2.7462-18.281 3.8112-5.6719 1.065-12.211 2.5259-14.531 3.2465-2.3203 0.7206-6.1172 1.8287-8.4375 2.4624-2.3203 0.63372-5.8132 1.9353-7.7619 2.8923-1.9488 0.95706-7.4332 2.3951-12.188 3.1956-4.7544 0.80054-12.362 2.487-16.906 3.7476-4.5439 1.2606-9.8174 2.3162-11.719 2.3457-1.9014 0.0294-5.5664 0.60649-8.1445 1.2823-2.5782 0.67578-6.5998 1.4937-8.9369 1.8176-2.3371 0.32387-5.6168 1.4205-7.2882 2.437-1.6715 1.0165-3.6553 1.8481-4.4085 1.8481-2.2414 0-16.516 4.3789-21.39 6.5617-2.4879 1.1142-6.9176 2.2459-9.8438 2.515-2.9261 0.26905-8.4843 1.6847-12.351 3.1458-3.8672 1.4612-13.992 4.8338-22.5 7.4948-8.5078 2.661-18.211 5.7839-21.562 6.9398-3.3516 1.1559-12.422 4.1149-20.156 6.5756-7.7344 2.4607-17.227 5.6518-21.094 7.0912-3.8672 1.4394-8.5078 3.0443-10.312 3.5664-1.8047 0.5221-6.8672 2.5049-11.25 4.4063s-10.34 4.2292-13.239 5.1729c-2.8985 0.94371-9.4375 3.7062-14.531 6.1388-10.496 5.0126-10 6.6679 0.86411 2.8843 3.7122-1.2928 13.71-4.2553 22.218-6.5834 8.5078-2.328 17.789-4.8727 20.625-5.6547 9.4857-2.6158 29.139-9.7212 30.751-11.118 2.6378-2.2854 20.273-7.5666 40.031-11.988 8.0873-1.8098 16.023-4.4554 28.594-9.5319 8.4246-3.4023 17.429-6.296 26.719-8.5868 3.0938-0.76287 10.165-2.6849 15.713-4.2711 5.5484-1.5862 10.792-2.8841 11.652-2.8841 0.8603 0 4.3363-0.8094 7.7245-1.7987 7.0817-2.0677 11.265-3.0992 23.035-5.68 4.6406-1.0175 12.023-3.1204 16.406-4.6731 4.3828-1.5527 8.8358-2.8288 9.8955-2.8357 2.7423-0.0178 26.998-5.3549 33.698-7.4145 8.5818-2.6383 15.3-4.0632 16.285-3.4542 0.4883 0.30179 3.3521-0.0749 6.3639-0.83713 3.0119-0.76222 9.6949-2.0376 14.851-2.8341 10.818-1.6711 12.485-2.0194 33.281-6.9531 8.5078-2.0184 17.156-3.9491 19.219-4.2904 15.147-2.5068 21.86-3.5037 37.969-5.6383 10.055-1.3324 22.289-3.2436 27.188-4.2472 19.591-4.0138 23.516-4.2803 25.732-1.7474 1.0815 1.2362 3.5391 3.4293 5.4611 4.8735 7.0997 5.3347 0.3865 7.6849-24.63 8.6229-7.3152 0.27428-30.727 2.9265-41.25 4.673-4.8984 0.81302-17.766 2.7007-28.594 4.1948s-20.808 3.1434-22.177 3.6651c-1.3693 0.52168-6.0099 1.4145-10.312 1.984-4.3024 0.56955-9.7211 1.6367-12.041 2.3714-5.9567 1.8862-25.325 6.9455-34.219 8.9385-16.76 3.7556-12.038 5.4119 7.5 2.631 3.6093-0.51374 9.3046-1.3283 12.656-1.8102 3.3516-0.48184 8.625-1.4829 11.719-2.2246 3.0937-0.74172 11.272-2.0226 18.173-2.8465 6.9014-0.82386 15.55-2.1484 19.219-2.9435 7.3819-1.5997 10.674-2.0791 33.858-4.9292 8.7656-1.0776 19.102-2.3825 22.969-2.8997 3.8672-0.51721 11.883-1.1886 17.812-1.4921 5.9297-0.30342 13.734-1.135 17.344-1.8479 3.6093-0.71291 12.862-1.5163 20.562-1.7853 7.6996-0.26901 14.379-0.86904 14.844-1.3334 1.1331-1.1332-2.871-4.7921-5.3483-4.887-1.0629-0.0407-1.4218-0.28126-0.7976-0.53456 0.7404-0.30048-0.6444-3.2187-3.9844-8.3961-2.8156-4.3646-5.1193-8.9363-5.1193-10.159 0-1.223-1.3174-5.1107-2.9274-8.6392-9.9872-21.887-9.0341-50.083 2.1274-62.933 1.4713-1.6937 2.675-3.7732 2.675-4.6209 0-0.84779 0.4829-2.877 1.0732-4.5093 3.1935-8.8314-3.4395-10.38-22.167-5.177-5.6719 1.576-12.844 3.527-15.938 4.3357-13.014 3.4018-28.474 7.294-33.281 8.3791-2.8359 0.64011-6.2109 1.6238-7.5 2.186-1.2891 0.56218-4.6641 1.4567-7.5 1.9879-5.2783 0.98863-13.241 3.0864-16.172 4.2602-0.9231 0.36976-1.6406 0.23674-1.6406-0.30417 0-1.5304 5.6769-4.6209 10.781-5.8693 2.5781-0.63058 6.375-2.0879 8.4375-3.2384 2.0625-1.1506 5.2265-2.3612 7.0312-2.6903 4.0789-0.74384 12.472-3.2599 30-8.9926 12.39-4.0525 18.27-5.3824 31.161-7.0485 6.2759-0.81114 7.6268-2.4579 6.8458-8.3451-0.9977-7.5207-3.0575-7.8554-15.193-2.4689-4.5983 2.0411-10.663 4.3319-13.478 5.0908-2.8145 0.75884-12.078 3.5777-20.586 6.2641-59.246 18.707-61.043 19.207-77.468 21.518-3.6776 0.51759-9.162 1.8203-12.188 2.8949-3.0254 1.0746-8.2429 2.7043-11.594 3.6216-3.3516 0.91729-10.759 3.4019-16.46 5.5214-5.7017 2.1195-15.058 4.9125-20.791 6.2066-5.7332 1.2942-11.52 2.77-12.861 3.2795-1.3402 0.50954-8.6483 1.9837-16.24 3.276-7.5922 1.2922-16.757 3.164-20.366 4.1594-3.6094 0.99541-11.203 2.5021-16.875 3.3482-5.6719 0.84611-14.227 2.3557-19.011 3.3546-4.784 0.99892-10.358 1.8162-12.385 1.8162-2.4026 0-4.2713 0.61846-5.3642 1.7753-1.7044 1.8042-32.409 5.7291-55.279 7.0663-4.7308 0.27661-10.426 0.91258-12.656 1.4133-2.23 0.50069-10.935 1.36-19.344 1.9095-8.4092 0.54952-23.386 2.0892-33.281 3.4216-9.8955 1.3323-26.007 2.772-35.804 3.1994-24.24 1.0572-40.001 2.2569-73.106 5.5646-24.753 2.4732-64.064 5.7852-82.051 6.9129-3.3516 0.21013-10.734 1.0666-16.406 1.9032-5.6719 0.83665-13.688 1.9232-17.812 2.4145-20.322 2.4204-32.863 4.3406-37.031 5.6697-1.8047 0.57553-7.0781 1.6363-11.719 2.3573-9.0303 1.403-11.913 3.2624-13.237 8.5368-0.99699 3.9723 0.87044 4.7766 6.4643 2.7841 7.8963-2.8125 15.345-4.0666 30.74-5.1752 7.9584-0.57311 16.157-1.4444 18.22-1.9362 19.677-4.6918 32.344-6.0078 32.344-3.3604 0 0.73247-1.1602 1.5668-2.5781 1.854-11.104 2.249-31.114 5.3808-42.422 6.6392-33.503 3.7285-47.812 8.5576-47.812 16.135 0 4.6085-0.28936 4.5145 7.9883 2.5948 3.4263-0.79462 7.0838-1.1737 8.1278-0.84232 2.4586 0.78033 15.465-1.0819 23.259-3.3302 3.3516-0.9668 10.945-2.6569 16.875-3.7557 5.9297-1.0988 14.532-2.8409 19.117-3.8713 6.6525-1.4952 8.8541-1.6587 10.904-0.80974 2.1999 0.91123 4.2303 0.51147 14.164-2.7887 8.4844-2.8186 14.814-4.2281 23.586-5.2523 6.5943-0.76995 16.087-2.2814 21.094-3.3589 5.0072-1.0774 10.37-2.1372 11.917-2.3551 6.9751-0.98245 15.924-2.4762 27.188-4.5382 6.7031-1.2271 17.883-3.0993 24.844-4.1605 6.9609-1.0612 14.766-2.3188 17.344-2.7946 8.3401-1.5394 15.775-2.7497 23.438-3.815 4.125-0.57352 9.299-1.4426 11.498-1.9314 2.1988-0.48875 5.735-0.88863 7.8581-0.88863s5.1757-0.7864 6.7834-1.7476c5.2383-3.1316 18.365-5.5654 41.361-7.6685 6.1875-0.56589 13.019-1.421 15.181-1.9002s5.2567-0.87127 6.8774-0.87127c1.6206 0 5.5471-0.62114 8.7255-1.3803 3.1783-0.75917 11.474-1.8305 18.435-2.3808 6.9609-0.55027 14.766-1.1777 17.344-1.3942 9.106-0.76479 1.3458 1.6009-18.281 5.573-3.8672 0.78264-9.9844 2.0282-13.594 2.7678-15.539 3.1845-22.875 4.3111-28.594 4.3917-6.8537 0.0966-19.7 1.9112-29.531 4.1714-3.6094 0.82982-9.7695 1.8964-13.689 2.3702-3.9196 0.47379-10.67 1.8685-15 3.0994-4.3304 1.2309-11.037 2.9478-14.905 3.8155-3.8672 0.86764-7.875 1.7812-8.9062 2.0301-1.0312 0.24891-5.6719 1.0391-10.312 1.7559-4.6406 0.71682-11.391 1.9935-15 2.837-3.6094 0.84351-11.083 2.0951-16.609 2.7813-5.5256 0.68622-12.065 1.696-14.531 2.244-12.093 2.6866-22.218 4.1949-41.985 6.2545-3.0938 0.32235-12.586 2.224-21.094 4.2259-15.577 3.6653-19.084 4.3518-35.932 7.0346-5.0671 0.80687-10.263 1.8661-11.545 2.3538-1.2829 0.48775-4.098 0.89221-6.2559 0.8988-2.1578 0.007-7.2089 1.0613-11.225 2.3438-4.2617 1.361-9.5333 2.3318-12.663 2.3318-2.9487 0-9.999 1.0223-15.667 2.2718-5.6684 1.2495-12.626 2.5653-15.462 2.9239-10.102 1.2775-14.675 5.5016-10.705 9.8883 1.4082 1.5561 1.6409 1.5444 4.6546-0.23375 2.5268-1.4908 4.6574-1.8384 10.471-1.7081 11.704 0.26229 26.64-2.2825 40.58-6.9142 8.0306-2.6682 23.537-5.9144 36.562-7.6538 4.8984-0.65416 12.281-1.8987 16.406-2.7656 4.125-0.86689 10.664-2.133 14.531-2.8137 3.8672-0.68061 11.672-2.1367 17.344-3.2358 20.935-4.0566 24.929-4.7592 27.057-4.7592 1.1961 0 5.5118-0.86288 9.5903-1.9175 7.9545-2.0569 32.1-2.8588 42.394-1.408 4.0682 0.57335 5.3047 0.40618 6.764-0.91451 1.3073-1.183 2.4854-1.4235 4.3968-0.89746 5.6011 1.5416 22.785 0.99714 43.392-1.375 4.8984-0.56386 13.758-1.4275 19.688-1.9191 5.9297-0.49168 14.789-1.3431 19.688-1.892 16.343-1.8313 37.032-0.85467 26.484 1.2502-1.418 0.28297-4.5809 0.95072-7.0287 1.4839-2.4478 0.53315-8.9869 1.0199-14.531 1.0818-13.869 0.15464-18.838 0.5008-30.237 2.1063-17.152 2.4159-53.673 5.5735-60.469 5.2282-20.655-1.0496-84.348 5.574-94.537 9.8311-1.7235 0.72014-6.2594 1.5978-10.08 1.9504-5.8567 0.54055-20.346 3.2014-33.665 6.1821-1.8047 0.40389-7.2891 1.5737-12.188 2.5996-17.69 3.7048-19.303 4.0833-24.844 5.8303-3.0938 0.97535-12.164 2.4415-20.156 3.258-7.9922 0.81658-18.146 1.9592-22.564 2.5392l-8.0325 1.0545 0.41283 5.2296c0.22706 2.8763 0.84878 5.7738 1.3816 6.439 1.4117 1.7624 18.605 0.56665 24.114-1.677 2.3203-0.94498 8.4375-2.1758 13.594-2.7352 5.1562-0.55938 12.539-1.875 16.406-2.9236 3.8672-1.0486 10.406-2.2864 14.531-2.7506 4.125-0.46422 9.6863-1.2772 12.359-1.8066 2.6722-0.5294 9.1023-1.2147 14.289-1.5228 5.1868-0.30816 11.649-0.96073 14.36-1.4502 2.7113-0.48942 7.6719-1.2964 11.023-1.7933 3.3516-0.49687 9.6797-1.5476 14.062-2.3348 4.9068-0.88143 13.59-1.4319 22.598-1.4327 10.12-0.00089 18.5-0.59953 27.188-1.9422 6.9072-1.0675 15.934-2.3229 20.059-2.7897 4.125-0.46682 11.719-1.4785 16.875-2.2481 5.1562-0.76961 11.748-1.4127 14.648-1.429 2.9002-0.0163 10.494-0.88879 16.875-1.9388s15.61-2.5451 20.508-3.3224c4.8984-0.77737 13.336-2.2117 18.75-3.1875 5.4141-0.97573 16.594-2.448 24.844-3.2718 8.25-0.82376 17.109-1.8875 19.688-2.3639 2.5781-0.47637 6.7969-1.1346 9.375-1.4628 5.9988-0.76352 28.963-4.696 37.5-6.4217 3.6094-0.72961 10.57-2.0303 15.469-2.8905 12.747-2.2384 28.051-5.1783 31.875-6.1232 22.862-5.6494 41.718-10.539 43.39-11.251 6.0351-2.5698 26.922-5.5379 26.922-3.8258 0 0.95192-5.0517 2.9042-7.5149 2.9042-0.8856 0-3.6702 0.79608-6.1882 1.7691-6.4377 2.4876-31.161 8.5711-40.672 10.008-4.3828 0.66211-9.6563 1.6389-11.719 2.1706-3.5996 0.928-12.578 2.8126-22.5 4.723-2.5781 0.49638-7.4296 1.5884-10.781 2.4266-3.3516 0.83829-9.2578 1.8276-13.125 2.1985-3.8672 0.37091-7.875 1.1348-8.9062 1.6975-4.6695 2.548-30.556 7.5172-50.625 9.718-4.6406 0.50891-12.867 1.7513-18.281 2.7608-5.4141 1.0096-15.117 2.7082-21.562 3.7748-6.4453 1.0666-13.617 2.3465-15.938 2.8442-6.4028 1.3735-16.45 2.8428-25.312 3.7018-4.3828 0.42479-10.922 1.457-14.531 2.2937-10.232 2.3721-25.111 4.3892-38.438 5.2109-6.7031 0.41332-14.719 1.2178-17.812 1.7877-3.0938 0.56989-13.219 1.6766-22.5 2.4593-9.2812 0.78275-18.352 1.7597-20.156 2.171-1.8047 0.41128-7.2891 0.8567-12.188 0.98982-4.8984 0.13312-10.613 0.61596-12.698 1.073-6.0601 1.328-33.094 5.7066-40.271 6.5225-3.6094 0.41033-11.625 1.5946-17.812 2.6316-6.1875 1.0371-15.46 2.3907-20.606 3.008-5.146 0.61735-10.968 1.7672-12.937 2.5552-3.9674 1.5875-10.244 1.9228-13.714 0.73265-2.2145-0.75953-2.2461-0.69404-1.6749 3.4732 1.274 9.2952 6.6745 11.218 20.078 7.1497 1.6617-0.50439 10.521-1.2734 19.688-1.7088 17.487-0.8307 30.985-2.6368 41.979-5.6168 3.6094-0.97837 9.9375-2.0548 14.062-2.3921 12.89-1.054 34.918-4.0046 36.717-4.9182 0.94605-0.4804 4.2513-1.3387 7.3451-1.9074 3.0938-0.56866 7.1016-1.304 8.9062-1.634 1.8047-0.33003 7.6358-0.79332 12.958-1.0295 5.3223-0.2362 10.729-0.82932 12.014-1.3181 1.2855-0.48875 4.1028-0.88058 6.2606-0.87072 3.8278 0.0174 18.659-2.8212 48.455-9.2742 6.7946-1.4715 27.317-4.0521 27.865-3.5039 0.83838 0.83837-20.4 7.9276-29.74 9.9268-10.796 2.3111-16.58 3.7851-21.897 5.5806-3.1676 1.0697-10.189 2.7905-15.603 3.8239-5.4141 1.0334-12.586 2.5151-15.938 3.2927-3.3516 0.77761-7.9922 1.8081-10.312 2.29-10.253 2.1294-39.657 10.657-52.5 15.226-4.3828 1.5593-9.6562 3.1339-11.719 3.4992-4.912 0.86995-10.155 2.6159-15.938 5.3067-2.5781 1.1998-6.7969 2.6546-9.375 3.233-2.5781 0.57833-7.2188 1.8054-10.312 2.7268-3.0938 0.92141-9.6328 2.6204-14.531 3.7754-4.8984 1.1551-11.859 3.1099-15.469 4.344-3.6094 1.2341-8.5664 2.2418-11.016 2.2393-3.3987-0.004-4.4531 0.33948-4.4531 1.4483 0 0.79904-0.62983 2.6708-1.3996 4.1594-2.219 4.2911 1.8224 8.6878 5.3962 5.8705 1.8776-1.4801 9.0216-2.2309 11.025-1.1586 2.5237 1.3506 26.69-3.9882 29.978-6.623 3.4758-2.7846 7.7874-4.5426 16.287-6.6408 4.1905-1.0344 8.5651-2.4913 9.7214-3.2375 1.1562-0.74616 4.1094-1.6182 6.5625-1.938 2.4531-0.31972 4.8821-0.90719 5.3977-1.3055 0.51562-0.39829 4.1042-1.3771 7.9746-2.1752 3.8704-0.79807 8.9329-2.1261 11.25-2.9512 2.3171-0.82507 9.5092-2.7001 15.982-4.1667 6.4732-1.4666 16.809-4.5662 22.969-6.888 11.416-4.3032 24.255-8.1482 27.208-8.1482 0.90154 0 3.7856-0.59963 6.409-1.3325 2.6234-0.73288 7.5121-1.8052 10.864-2.383 5.5371-0.95453 21.896-5.4011 38.906-10.575 3.6094-1.0979 8.866-3.0061 11.681-4.2405 4.4316-1.9429 5.9683-2.159 11.444-1.6091 6.197 0.62235 6.3366 0.58766 6.9156-1.7192 0.67135-2.6748 6.5532-5.6098 13.532-6.7524 2.3089-0.37802 6.5277-1.5087 9.375-2.5126 6.0662-2.1389 11.243-3.7284 31.049-9.5332 8.0422-2.357 16.48-5.0551 18.75-5.9957 2.2704-0.94062 7.292-2.4127 11.159-3.2712 3.8672-0.85857 14.404-3.3174 23.415-5.4642 9.011-2.1467 19.347-4.4406 22.969-5.0975 3.6218-0.65693 9.9602-2.0581 14.085-3.1138 4.125-1.0557 11.719-2.8234 16.875-3.9284 5.1562-1.105 11.062-2.573 13.125-3.2623 3.545-1.1848 21.475-5.3104 28.594-6.5794 1.8047-0.32169 4.9688-1.1507 7.0313-1.8424 2.0625-0.69159 6.7031-1.9076 10.312-2.7023 16.966-3.7355 23.659-5.5335 26.278-7.0601 1.5623-0.91051 5.3592-1.9505 8.4375-2.3111 3.0783-0.36061 9.8156-1.6682 14.972-2.9058 5.1562-1.2376 12.961-2.9142 17.344-3.7259 13.133-2.4322 27.195-5.2926 35.156-7.1513 4.125-0.96305 10.453-2.2071 14.062-2.7646 3.6093-0.55749 8.8512-1.6758 11.648-2.4852 3.4528-0.99905 7.2054-1.32 11.686-0.99934 4.3586 0.31186 7.2482 0.0793 8.5077-0.68472 4.495-2.7265 16.806-4.5484 23.104-3.4191 5.8984 1.0575 6.0242 1.036 8.1504-1.3935 2.0765-2.3728 2.211-2.4004 3.4992-0.71641 2.2619 2.9566 1.2515 4.5143-3.3257 5.1269-2.3144 0.30978-5.7673 1.2552-7.673 2.1008-1.9058 0.84567-9.0777 2.6097-15.938 3.9202-6.8599 1.3104-14.793 2.9936-17.629 3.7403-2.8359 0.74673-13.805 2.8327-24.375 4.6355s-21.75 3.8852-24.844 4.6277c-3.0938 0.74242-10.477 2.0354-16.406 2.8734-23.829 3.3674-34.362 5.6109-52.969 11.282-5.6719 1.7288-15.797 4.017-22.5 5.0848-6.7032 1.0678-15.984 3.2258-20.625 4.7954-9.5058 3.2152-18.764 5.6328-30.469 7.9566-4.3828 0.87012-12.398 2.7621-17.812 4.2044-14.822 3.9485-14.738 3.9348-25.538 4.2052-6.8606 0.17179-10.745 0.68791-12.188 1.6195-2.9904 1.9307-15.718 6.1893-23.205 7.7642-3.4773 0.73149-12.179 3.2617-19.336 5.6227-17.973 5.9286-28.439 8.9107-31.255 8.9053-4.8305-0.009-32.596 9.6383-51.081 17.749-7.1894 3.1546-15.57 6.383-18.624 7.1744-3.054 0.79138-7.7187 2.2221-10.366 3.1793-2.6472 0.95724-7.7625 2.4548-11.367 3.3278-3.6048 0.87307-9.0891 2.5505-12.188 3.7277-3.0983 1.1772-8.1646 2.7711-11.258 3.5421-3.0938 0.771-11.742 3.3623-19.219 5.7584-7.4766 2.3962-16.723 5.0074-20.547 5.8028-3.8245 0.79537-8.4651 2.0064-10.312 2.6911-1.8474 0.68475-7.1558 2.385-11.796 3.7782-4.6406 1.3933-12.023 3.7326-16.406 5.1986-4.3828 1.4659-10.5 3.0721-13.594 3.5693-3.0938 0.49721-10.055 2.3878-15.469 4.2013-5.4141 1.8135-13.852 4.2114-18.75 5.3288-4.8984 1.1173-13.125 3.0207-18.281 4.2297-5.1562 1.209-11.695 2.4812-14.531 2.8271-6.8333 0.83343-10.286 4.0961-6.0541 5.7201 2.3674 0.90844 40.926-6.0667 55.742-10.083 5.4141-1.4679 12.846-3.2949 16.514-4.0601 3.6689-0.7652 9.4325-2.4308 12.808-3.7014s9.8659-3.2435 14.423-4.3842c8.2534-2.0661 25.805-7.846 38.286-12.608 3.6094-1.3771 8.6719-3.1431 11.25-3.9244 2.5781-0.78129 7.0078-2.5283 9.8438-3.8822 3.0061-1.4352 6.9154-2.4983 9.375-2.5495 6.2877-0.13082 13.839-2.003 20.156-4.9975 11.936-5.6578 18.033-7.3246 19.903-5.4414 1.799 1.8112-1.0754 5.2553-4.4347 5.3136-0.77344 0.0134-6.2578 2.4947-12.188 5.5139-9.9706 5.0768-17.048 7.7456-25.312 9.5452-3.1884 0.69428-4.8815 1.3198-19.688 7.2735-3.8672 1.5551-9.3516 3.5345-12.188 4.3987-2.8359 0.86425-7.6875 2.5447-10.781 3.7344-3.0938 1.1897-11.742 4.1295-19.219 6.5329-7.4766 2.4034-16.336 5.7366-19.688 7.4071-3.3516 1.6705-12.422 5.0942-20.156 7.6082-7.7344 2.514-17.438 5.7928-21.562 7.2862-4.125 1.4934-11.351 3.717-16.059 4.9413-18.598 4.8374-21.25 6.6142-16.687 11.178 1.7934 1.7934 0.3701 1.9837 10.28-1.3746zm299.73-157.86c1.3882-1.2224 4.3414-2.4992 6.5625-2.8373 7.623-1.1604 19.049-3.4628 28.882-5.8198 18.786-4.5029 38.438-7.2103 38.438-5.2955 0 1.5232-6.2712 3.9646-12.882 5.015-3.4854 0.5538-9.0792 1.784-12.431 2.7338-3.3516 0.94975-10.312 2.4054-15.469 3.2349-5.1562 0.82943-14.016 2.3464-19.688 3.3711-5.6719 1.0247-11.578 1.8535-13.125 1.8418l-2.8125-0.0213 2.5239-2.2226zm-25.493-7.8461c0-1.6296 13.537-5.2769 32.019-8.6272 2.3995-0.43497 5.5636-1.3851 7.0312-2.1114 1.4677-0.72631 5.1997-1.8571 8.2934-2.5128 3.0938-0.65575 11.109-2.6801 17.812-4.4986 6.7032-1.8185 14.297-3.7275 16.875-4.2423 2.5782-0.51479 7.0079-1.5443 9.8438-2.2878 2.8359-0.74354 7.6875-1.9772 10.781-2.7415 3.0937-0.76431 11.742-3.2467 19.219-5.5164 7.4766-2.2697 15.492-4.4084 17.812-4.7526 5.2503-0.77876 26.998-7.2145 30.072-8.8989 1.2497-0.68494 4.3816-1.5262 6.9598-1.8695 4.6615-0.62073 8.4213-1.499 28.125-6.5698 21.237-5.4654 27.007-6.3335 26.553-3.9947-0.2115 1.0896-2.3696 2.0572-7.1475 3.2046-3.7646 0.90408-7.903 2.3373-9.1966 3.1849-1.2936 0.84761-4.7526 1.9597-7.6867 2.4714-11.094 1.9348-14.898 2.5887-21.272 3.6574-3.6094 0.60514-9.2076 2.1146-12.44 3.3543-3.2329 1.2397-6.6227 2.254-7.5329 2.254s-4.8042 1.0793-8.6533 2.3985c-8.0847 2.7708-10.383 3.4569-18.717 5.5874-3.3516 0.85679-8.625 2.3876-11.719 3.4019-8.7117 2.856-15.342 4.5497-17.812 4.5497-2.6645 0-9.348 1.7011-19.688 5.0108-4.1251 1.3204-12.141 3.4641-17.813 4.7636-5.6718 1.2996-12.422 2.9639-15 3.6986-7.5604 2.1545-13.446 3.402-16.051 3.402-3.6908 0-15.085 2.7097-21.918 5.2123-6.7658 2.4782-18.75 4.0584-18.75 2.4723zm135.35-12.809c-1.1229-2.9261 1.2438-3.913 17.93-7.4771 4.125-0.88107 10.031-2.1747 13.125-2.8747 3.0937-0.70003 9-1.987 13.125-2.8598 4.125-0.87288 10.875-2.4302 15-3.4607 8.1878-2.0454 20.344-3.943 34.219-5.3412 13.461-1.3566 20.254-2.5492 29.531-5.1843 4.6406-1.3182 10.547-2.7975 13.125-3.2872 2.5781-0.48975 6.375-1.5188 8.4375-2.2868 2.0625-0.76798 4.505-1.4148 5.4279-1.4375 0.9229-0.0226 3.3365-0.88723 5.3635-1.9213s5.4459-2.1014 7.5974-2.3717c2.1516-0.27033 4.3557-0.76582 4.8982-1.1011 2.2658-1.4004 25.692-7.735 28.683-7.756 1.2551-0.008 3.9973-0.8027 6.0938-1.7642 15.717-7.2085 22.915-7.3215 20.887-0.32775-1.471 5.072-2.1253 5.6071-7.5108 6.142-18.92 1.8791-26.234 3.1603-37.221 6.5194-4.3828 1.34-9.6562 2.7152-11.719 3.056-3.3993 0.56158-11.496 2.5694-20.156 4.9981-4.3657 1.2244-21.831 4.5216-27.429 5.1784-2.4531 0.28778-5.4147 1.1486-6.5812 1.913-1.1667 0.76437-7.5971 2.4867-14.29 3.8274-6.6928 1.3407-15.755 3.2424-20.138 4.226-4.3828 0.98362-10.711 2.2259-14.062 2.7607-3.3516 0.53475-8.2031 1.5734-10.781 2.308-4.2409 1.2085-15.488 3.3188-25.312 4.7492-2.0625 0.30031-7.125 1.3343-11.25 2.2977-11.382 2.6584-16.372 3.0917-16.993 1.4756zm579.02 162.34c1.2891-0.20839 4.2422-0.68363 6.5625-1.0561 17.762-2.8513 41.386-12.329 48.984-19.652 5.3344-5.1408 1.8225-15.478-5.2873-15.563-1.3761-0.0165-3.3229 3.1235-3.3548 5.4107-0.104 7.4629-9.7647 14.32-24.027 17.055-3.0435 0.58355-7.854 1.4966-10.69 2.0289-2.8359 0.53234-11.062 1.3439-18.281 1.8035-7.2188 0.45958-14.892 1.0983-17.052 1.4193-5.2936 0.78689-20.129-3.379-30.602-8.5934-3.9951-1.989-10.002 1.1801-10.002 5.2767 0 8.5995 39.029 15.867 63.75 11.87zm-1011.1-44.28c6.7031-1.3004 16.406-3.1187 21.562-4.0408 5.1562-0.92207 10.296-2.174 11.423-2.7821 1.1263-0.6081 3.4466-1.1157 5.1562-1.1279 4.4432-0.0319 18.47-3.2454 19.749-4.5245 3.3419-3.3419-5.8484-4.3327-16.172-1.7435-3.3516 0.84061-9.4911 1.5265-13.643 1.5241-4.1523-0.003-8.1601 0.21789-8.9062 0.48941-0.74611 0.27151-8.7394 1.1057-17.763 1.8538-21.358 1.7706-22.298 2.228-19.308 9.3854 1.7061 4.0833 1.8057 4.0887 17.902 0.96613zm469.69-55.319 3.75-1.3087-4.9771 0.31092c-2.7374 0.17101-5.4584 0.79235-6.0469 1.3807-1.5039 1.5039 2.4662 1.2949 7.274-0.38297zm257.84-33.715c5.1398-2.3264 12.298-5.0932 15.908-6.1486 3.6093-1.0553 9.5156-3.1307 13.125-4.612 3.6093-1.4813 7.2419-2.8973 8.0722-3.1468 0.9968-0.29946 1.6738-1.9098 1.9929-4.7406 0.4608-4.0886-0.2641-7.6988-4.2546-21.185-1.7829-6.0251-4.2688-15.077-7.209-26.25-1.1534-4.3828-2.6816-9.9464-3.3962-12.364-0.7145-2.4172-1.2991-5.0014-1.2991-5.7427s-1.0523-3.7274-2.3386-6.6358c-1.2862-2.9084-2.4998-7.4637-2.6969-10.123-0.3928-5.3009-2.4309-7.7571-5.6017-6.7507-1.0062 0.31933-10.52 0.73241-21.143 0.91795-27.591 0.48192-27.403 0.4377-34.745 8.1705-6.9636 7.334-6.9994 9.3409-0.1758 9.8468 6.2807 0.46558 3.9066 2.9459-2.8527 2.9802-2.8758 0.0146-3.2317 0.4503-6.1155 7.486-6.641 16.203-1.1023 48.783 10.254 60.313 3.1458 3.1942 6.942 7.7934 8.436 10.221 3.3107 5.3783 9.4577 10.085 13.337 10.212 1.5742 0.0514 3.9168 0.43122 5.2059 0.84405 4.2546 1.3626 6.0632 0.97836 15.499-3.2923zm-17.3-15.37c0-1.4962 2.6272-2.4682 15.469-5.7234 6.1875-1.5684 12.402-3.3101 13.811-3.8703 3.0641-1.2186 5.5813-0.47398 4.849 1.4343-1.1244 2.9303-34.129 10.821-34.129 8.1594zm-29.448-57.252c0.5616-0.56804 6.0459-1.4371 12.188-1.9312 6.1416-0.49412 13.276-1.3537 15.854-1.9102 5.1835-1.1189 16.849-0.0983 16.865 1.4755 0.013 1.2781-10.914 2.3409-29.99 2.9172-11.601 0.35046-15.66 0.20046-14.917-0.55133zm43.51-8.5629c-32.414-3.6826-40.473-8.0825-12.891-7.0381 18.759 0.71034 23.947 1.5136 25.756 3.9878 3.0969 4.2353 1.3048 4.6602-12.866 3.0503zm176.66 37.838c-0.3671-4.4296-2.1895-12.389-4.6688-20.391-2.2367-7.2188-5.8414-18.82-8.0105-25.781-2.1691-6.9609-5.4646-18.529-7.3233-25.706-3.3799-13.051-5.7233-17.268-5.7233-10.298 0 1.94 0.4066 4.8228 0.9037 6.4062 0.4969 1.5835 1.8215 6.8869 2.9434 11.785 1.1219 4.8984 2.2702 9.309 2.5516 9.8014 0.2815 0.49231 0.6315 1.9689 0.778 3.2812 0.2416 2.1662 9.4675 33.816 11.49 39.417 0.4654 1.2891 1.9777 6.0352 3.3606 10.547 3.1419 10.25 4.499 10.594 3.6985 0.9375zm-29.083-9.8438c-0.335-2.707-1.4042-7.8665-2.376-11.466-0.9719-3.599-1.767-8.0639-1.767-9.9219s-0.273-3.6512-0.6066-3.9848c-0.3336-0.33362-1.3451-2.6188-2.2476-5.0781-3.713-10.117-6.1441-16.126-6.782-16.764-1.1993-1.1993-0.7184 6.0479 0.6433 9.6954 0.7258 1.944 2.8468 10.074 4.7134 18.066 1.8667 7.9922 3.9792 16.008 4.6947 17.812 0.7154 1.8047 1.5343 4.0195 1.8196 4.9219 1.1931 3.7728 2.5025 1.5211 1.9082-3.2812zm45.271-1.4968c-0.2703-3.5303-1.585-9.8802-2.9214-14.111-1.3365-4.2307-2.43-9.1432-2.43-10.917 0-2.7772-1.9869-9.9179-5.7278-20.585-0.5426-1.5469-1.7965-6.0316-2.7865-9.9659-0.9901-3.9344-2.4827-8.786-3.3169-10.781-0.8342-1.9953-2.0945-5.8446-2.8007-8.5539-2.0599-7.9033-4.0055-11.968-5.1709-10.802-0.7213 0.72134-0.5813 2.4836 0.4903 6.1696 0.825 2.838 1.5 6.2202 1.5 7.516 0 1.2959 0.8009 4.2246 1.7798 6.5084 0.979 2.2837 3.114 8.9632 4.7445 14.843 1.6304 5.8801 3.5595 12.59 4.2869 14.91 0.7273 2.3203 2.6248 9.7031 4.2165 16.406 5.8775 24.751 9.1441 32.525 8.1362 19.363zm-66.289-5.5312c0-4.1051-1.1431-8.4467-6.8116-25.872-2.1116-6.491-4.2996-9.7773-3.1557-4.7397 0.3395 1.4946 1.2075 6.0959 1.9291 10.225 3.6392 20.825 8.0382 31.982 8.0382 20.386zm87.747 2.2085c0.7717-2.0109-4.7531-25.129-7.1938-30.102-0.5061-1.0312-1.7194-5.0391-2.6961-8.9062-0.9767-3.8672-2.6516-10.084-3.7219-13.814-3.7459-13.055-6.6349-24.848-6.6349-27.083 0-1.2396-0.3845-2.9864-0.8543-3.8818-1.4029-2.673-3.5364-9.6162-5.2533-17.097-1.7843-7.7736-4.1078-14.062-5.1956-14.062-1.023 0 0.049 7.0154 2.1493 14.062 0.9988 3.3516 1.9502 8.2031 2.1144 10.781 0.1641 2.5781 1.5828 9.1172 3.1527 14.531 1.57 5.4141 4.5263 16.383 6.5697 24.375 2.0434 7.9922 4.5445 16.641 5.5579 19.219 1.0135 2.5781 2.1549 6.5859 2.5364 8.9062 0.7149 4.3472 4.2662 17.237 6.0056 21.797 1.0612 2.7823 2.6595 3.3703 3.4639 1.2742zm23.382-10.047c-1.782-11.069-5.6176-25.916-8.4423-32.681-1.1912-2.8526-3.0956-8.9834-4.2317-13.624-1.1363-4.6406-3.5229-13.5-5.3035-19.688-1.7806-6.1875-3.9152-13.781-4.7434-16.875-0.8283-3.0938-3.1309-10.688-5.1168-16.875-1.9859-6.1875-4.2091-13.992-4.9404-17.344-1.2012-5.5054-4.6092-16.081-8.2484-25.597-1.5817-4.1361-4.4751-7.5633-4.48-5.3066 0 1.502 2.5776 11.207 6.0989 22.935 3.9171 13.046 6.0906 21.953 6.1222 25.089 0.017 1.67 0.8851 5.3567 1.9293 8.1927 1.0443 2.8359 2.2778 6.9191 2.7411 9.0738 2.712 12.612 5.8923 24.344 8.4817 31.288 3.6602 9.816 8.2311 23.601 12.107 36.513 7.413 24.696 10.538 30.495 8.0265 14.899zm-132.25-3.744c-0.8717-3.557-1.8081-6.4674-2.081-6.4674-0.9405 0 0.4837 11.725 1.7614 14.501 2.0579 4.4721 2.2432-0.18477 0.3196-8.0339zm148.22-9.0619c-0.2892-0.91136-1.5538-6.5012-2.81-12.422-7.1046-33.483-18.351-72.73-25.443-88.792-1.1904-2.696-2.4476-6.7903-2.7937-9.0983-0.6548-4.3663-2.6233-8.0243-3.7253-6.9224-0.3503 0.35033 0.299 3.0919 1.443 6.0923s2.8858 8.4084 3.8707 12.018c0.9848 3.6094 2.1769 7.8281 2.6489 9.375 6.1536 20.166 8.6829 29.578 9.9519 37.031 0.834 4.8984 2.4804 12.07 3.6586 15.938 1.1782 3.8672 2.3507 7.875 2.6056 8.9062 3.7877 15.327 8.694 29.531 10.2 29.531 0.5053 0 0.6821-0.74566 0.3928-1.657zm-230.29-33.626c2.6519-3.3713 2.4748-3.7779-1.4461-3.3202-4.9096 0.57317-5.5139-1.1921-2.3479-6.8586 7.0286-12.58 6.5968-13.084-9.6584-11.282-7.0996 0.78713-16.722 1.4312-21.382 1.4312-4.6605 0-10.21 0.45369-12.332 1.0082-2.1223 0.55451-6.39 1.6314-9.4837 2.3932-13.517 3.3281-13.092 3.062-13.403 8.3941-0.508 8.7079 19.033 13.651 34.37 8.6949 7.2842-2.354 22.798-2.4456 25.401-0.14993 3.3586 2.9616 7.8144 2.827 10.282-0.31069zm-45.456-9.2188c-1.0008-0.75703-1.6088-1.4137-1.351-1.4593 5.5975-0.98914 23.438-0.70517 23.438 0.37306 0 2.7622-18.658 3.6798-22.086 1.0862zm54.739 1.963c1.7487-1.2901 5.0769-2.4988 7.9166-2.8748 9.0031-1.1924 32.766-8.0656 38.649-11.179 1.5468-0.81859 4.7109-2.3484 7.0312-3.3994 8.7426-3.9604 23.502-13.973 26.495-17.973 11.64-15.558 15.809-30.857 11.519-42.27-2.2127-5.8874-3.7262-5.2138-8.3422 3.7127-2.2277 4.308-16.726 18.66-24.984 24.732-6.8226 5.0165-10.866 7.0497-23.287 11.709-3.2686 1.2261-7.618 3.461-9.6652 4.9665s-7.3527 4.1495-11.79 5.8756c-7.4303 2.8902-8.1969 3.4348-9.7025 6.8916-3.0999 7.1175-4.6938 10.331-7.4421 15.003-4.3186 7.3424-2.7227 9.4715 3.6019 4.8053zm-1063.4 427.83c-9.2087-1.8434-30.346-12.761-43.302-22.366-8.2186-6.0926-16.847-12.233-23.491-16.718-6.1034-4.1197-9.6288-6.6348-19.457-13.881l-8.4375-6.2211-9.8438 0.58112c-13.886 0.81973-34.855 4.0927-43.01 6.7134-4.0793 1.3108-9.1969 2.2225-12.475 2.2225-3.0574 0-7.4913 0.48656-9.853 1.0813-4.2945 1.0814-10.599-0.77188-10.599-3.1157 0-0.44093-2.2148-1.8109-4.9219-3.0444-8.937-4.0723-13.569-9.4992-22.069-25.859-1.4735-2.8359-3.7661-6.7352-5.0946-8.6651-2.5317-3.6777-5.1134-11.393-7.7665-23.21-0.86827-3.8672-2.1709-8.8994-2.8947-11.183-0.72381-2.2833-1.316-6.0024-1.316-8.2648s-0.49961-5.0349-1.1102-6.1611c-0.61064-1.1262-1.4142-5.2118-1.7856-9.079-0.37148-3.8672-1.3282-11.461-2.1261-16.875-1.6098-10.924-1.2818-23.979 0.8949-35.625 0.72283-3.8672 1.3143-8.6462 1.3144-10.62 0.00009-2.177 1.2913-6.2732 3.2821-10.412l3.282-6.8235 6.1053-1.5066c3.3579-0.82865 6.7336-1.2656 7.5014-0.97093 7.9865 3.0647 9.4897-7.4 3.1297-21.787-2.613-5.9108-3.2393-26.634-1.2724-42.098 0.85256-6.7031 1.9466-15.958 2.4312-20.567 0.52371-4.9802 1.4459-9.0032 2.2735-9.9176 2.6704-2.9507-0.4607-7.8965-7.1915-11.36-4.4516-2.2904-26.753-23.273-31.572-29.705-2.581-3.4448-7.1525-8.6764-10.159-11.626-5.3699-5.268-7.4245-6.8159-19.015-14.325-29.315-19-64.716-48.14-64.716-53.28 0-3.1575 2.1565-3.2914 4.9666-0.30841 2.7373 2.9057 14.265 10.486 27.056 17.792 2.4018 1.3718 6.4096 4.0607 8.9062 5.9753 2.4967 1.9146 6.0744 4.3454 7.9505 5.4017s6.3058 3.8801 9.8438 6.2751 8.0876 5.0407 10.11 5.8793c2.0227 0.83857 5.3977 2.902 7.5 4.5855s4.9683 3.7844 6.369 4.6687c3.2634 2.0603 13.362 12.127 17.61 17.554 9.7005 12.394 24.088 25.566 34.219 31.327 9.0079 5.1232 11.124 9.4053 7.4334 15.039-1.1391 1.7385-1.2394 2.6842-0.4425 4.1732 2.9193 5.4548 0.81348 32.763-3.4951 45.323-1.2893 3.7587-1.3503 5.096-0.3844 8.4375 0.63128 2.184 1.5596 6.6126 2.0628 9.8415 0.5033 3.2288 2.0156 8.9242 3.3608 12.656 1.3451 3.7321 2.7762 8.2622 3.1802 10.067 2.4703 11.036 4.4235 17.567 7.9911 26.719 7.7818 19.962 13.621 33.477 19.562 45.272 3.3004 6.5534 6.3012 12.915 6.6684 14.137 2.4392 8.1165 19.135 37.954 29.445 52.622 3.443 4.8984 7.0309 10.128 7.973 11.622 4.2838 6.7914 15.545 16.373 28.976 24.654 2.6714 1.6471 5.8796 3.7565 7.1294 4.6875 1.2497 0.93102 3.1528 2.1146 4.229 2.6303 3.9565 1.8956 20.884 14.524 27.48 20.502 6.0676 5.4981 13 10.672 24.966 18.632 11.759 7.823 35.936 10.079 55.734 5.2007 4.9985-1.2317 6.6301 0.008 6.9651 5.2949l0.22899 3.6142-5.625 1.3018c-14.159 3.2768-27.725 4.4861-34.688 3.0922zm-164.53-61.8c3.8672-1.0454 9.3516-1.9209 12.188-1.9456 16.081-0.14026 26.25-2.8329 26.25-6.9506 0-6.0995-2.183-7.3237-10.312-5.7832-31.041 5.8821-42.271 9.0899-44.511 12.714-0.83571 1.3522 5.2518 4.8727 7.4801 4.3258 1.0312-0.25311 5.0391-1.3155 8.9062-2.3609zm-21.905-16.981c1.4259-0.54212 8.5012-1.6077 15.723-2.368 27.388-2.8834 45.036-9.0392 35.887-12.518-2.0331-0.77299-4.583-0.56351-22.205 1.8243-3.3516 0.45413-14.017 0.84735-23.701 0.87383-19.416 0.0531-19.822 0.18568-17.526 5.7284 2.8673 6.9223 6.0422 8.6568 11.823 6.4591zm19.421-24.282c22.797-0.84727 24.179-1.1673 22.353-5.1754-1.1174-2.4524-5.0967-3.3397-6.2934-1.4033-0.36774 0.595-5.5184 0.92654-13.415 0.86349-7.0498-0.0564-14.716 0.0364-17.037 0.20603-10.219 0.74704-2.9673-7.1875 7.9688-8.7187 18.504-2.5908 21.138-3.7044 17.713-7.4887-2.0749-2.2927-4.86-1.9444-12.194 1.525-2.7141 1.284-5.7985 2.3345-6.8543 2.3345-2.9379 0-10.189 1.8454-16.947 4.3126-3.3516 1.2237-8.1507 2.6079-10.665 3.0759-5.2426 0.97599-6.3043 2.155-5.548 6.1611 1.1673 6.1828 1.3926 6.3002 10.883 5.6729 4.7361-0.31307 18.251-0.9275 30.034-1.3654zm-35.01-23.64c3.3516-0.54343 9.6797-2.0492 14.062-3.3462 4.3828-1.297 11.062-3.1003 14.843-4.0073 7.5212-1.8045 9.6318-3.0835 7.9173-4.7981-1.0103-1.0103-9.0374 0.0941-21.534 2.9629-2.1619 0.49628-8.5439 0.90233-14.182 0.90233-12.478 0-12.362-0.098-11.491 9.7187 0.0397 0.44685 1.0214 0.52969 2.1815 0.18408 1.1602-0.34561 4.8516-1.073 8.2031-1.6164zm-10.691-18.633c1.4057-0.53446 5.5936-0.9876 9.3064-1.007s8.3909-0.45464 10.396-0.96724c2.0049-0.5126 6.8968-1.4477 10.871-2.0779 8.8021-1.3959 8.9708-1.5464 6.3987-5.7081-2.4856-4.0218-5.1166-4.2246-22.999-1.7736-6.1875 0.84806-12.938 1.583-15 1.6331-5.2228 0.12703-6.337 1.0541-5.569 4.6336 1.3246 6.1738 2.2559 6.9174 6.5965 5.2671zm18.154-18.755c13.182-1.107 12.903-1.007 11.482-4.1264-2.333-5.1205-4.3124-5.5368-22.016-4.6303l-16.148 0.82678-0.29487 3.581c-0.46396 5.6346 0.9614 6.6024 8.7108 5.9145 3.6212-0.32146 11.841-1.026 18.266-1.5656zm0.0369-14.961c5.5846-1.517-1.6255-23.167-7.5724-22.737-19.718 1.4239-19.579 1.3188-19.601 14.846-0.0159 9.8273 9.6799 12.643 27.174 7.8907zm-15.749-28.114c7.5101-2.0812 8.5843-2.7872 8.066-5.3018-0.27385-1.3287-1.0759-1.6832-3.392-1.4992-1.6683 0.13257-4.029-0.41138-5.246-1.2088-2.1373-1.4004-2.3122-1.3145-5.1334 2.5218-5.3703 7.3024-4.3576 8.2766 5.7054 5.488zm1986.8 168.65c-1.0055-1.6269 2.1365-4.2979 3.4779-2.9565 0.8309 0.83095 0.8051 1.4376-0.1081 2.538-1.4142 1.704-2.4926 1.8379-3.3698 0.41852zm-1871.1-65.53c-5.8751-1.1152-7.5644-4.541-4.2913-8.7021l1.879-2.3888-9.1446-7.2618c-16.094-12.78-20.429-17.726-17.599-20.075 0.73727-0.61187 1.8863-0.78676 2.5534-0.38862 6.9027 4.1196 20.236 13.235 23.019 15.736 5.9289 5.3301 10.634 8.0766 13.835 8.0766 3.6105 0 5.5404 1.9497 4.6638 4.7116-0.34722 1.094-0.10847 3.2514 0.53056 4.7941 1.9762 4.7709-5.4155 7.4019-15.446 5.4979zm69.767-29.617c-7.1915-2.4598-10.808-8.4266-6.5038-10.73 3.5447-1.8971 17.15 6.1428 16.623 9.8235-0.35763 2.4999-4.4022 2.8623-10.119 0.9068zm13.151-9.9014c-2.1231-0.8164-5.4041-3.1017-15.358-10.697-1.9873-1.5164-5.406-4.0226-7.5971-5.5695-13.346-9.4216-22.723-19.241-21.477-22.489 1.2329-3.213 5.1194-1.4362 13.818 6.317 9.0865 8.0991 14.577 12.579 25.34 20.678 10.191 7.6682 13.433 14.898 5.2738 11.76zm103.22-13.019c-2.3325-2.1076-10.608-6.9624-19.217-11.274-8.3163-4.1651-15.787-8.1762-16.602-8.9137-0.81492-0.7375-1.9154-1.3409-2.4456-1.3409-3.3017 0-25.607-19.68-25.607-22.592 0-4.9397 4.898-4.3147 8.9062 1.1364 3.8405 5.223 14.011 13.777 21.052 17.706 2.9101 1.6238 25.554 12.942 32.169 16.079 6.1864 2.9338 8.3899 5.488 8.0172 9.2928-0.41371 4.2237-1.5134 4.2073-6.273-0.0932zm-16.608-24.886c-11.644-1.9968-17.387-6.1378-36.951-26.641-13.736-14.395-20.772-23.92-20.969-28.385-0.18519-4.1909 1.8025-4.1141 4.5096 0.17429 2.1123 3.346 2.709 3.7249 5.1107 3.2446 2.412-0.48241 2.786-0.23948 3.311 2.1507 0.56503 2.5726 17.706 18.886 22.561 21.473 1.0354 0.55159 5.299 2.9774 9.4747 5.3906s8.0021 4.3877 8.5031 4.3877c0.50105 0 2.6615 1.4983 4.801 3.3296 3.3372 2.8565 4.1709 3.1793 5.867 2.2716 2.9863-1.5982 4.1022-0.67138 6.0338 5.0112 2.732 8.0374 0.0459 9.7022-12.252 7.5933zm105.57-4.3381c-1.0819-1.1613-2.2075-3.0691-2.5013-4.2395-0.72636-2.8941-1.8194-2.69-1.774 0.3313 0.10834 7.2092-4.8008 4.7157-10.236-5.1992-4.6625-8.5057-9.8349-14.213-17.754-19.59-8.918-6.0554-10.591-10.483-3.9609-10.483 4.4627 0 21.424 11.256 22.615 15.008 0.32587 1.0268 1.0374 1.8668 1.5812 1.8668 0.54376 0 0.29844-0.94922-0.54518-2.1094-0.84361-1.1602-1.8012-2.7422-2.128-3.5156-1.3728-3.2495-8.3343-11.469-10.788-12.738-2.8318-1.4644-3.5683-4.722-1.5287-6.7616 2.8948-2.8948 19.014 1.2778 23.066 5.9708 3.3857 3.921 2.4672 6.4979-2.3161 6.4979-5.3684 0-5.6588 0.67869-2.3969 5.6032 10.374 15.661 17.084 38.393 8.6663 29.358zm1121-11.578c-2.5921-2.6792 0.7034-6.0393 5.9233-6.0393 1.6499 0 4.6819-0.50396 6.7378-1.1199 6.3691-1.9082 8.5163 3.5811 2.2637 5.7876-3.8841 1.3707-14.024 2.3026-14.925 1.3716zm-1.6694-17.834c-1.2297-3.2343-0.2838-4.8132 3.2846-5.4826 6.1993-1.163 13.619 0.91895 13.619 3.8214 0 3.5259-15.612 5.0601-16.904 1.6612zm-2.7473-16.263c-2.0072-3.7504 7.248-7.8927 14.51-6.4942 3.7699 0.726 2.373 4.879-1.89 5.6192-2.0625 0.35808-4.9377 1.108-6.3892 1.6666-3.7529 1.444-5.1278 1.2694-6.2307-0.79158zm-1121.2-3.36c-1.735-0.76325-3.9631-1.3877-4.9514-1.3877-13.8 0-44.168-20.778-39.17-26.801 1.6072-1.9365 2.3118-1.71 7.5438 2.4257 2.6092 2.0625 5.2821 3.75 5.9397 3.75s2.2993 0.86815 3.6482 1.9292c4.4221 3.4785 18.471 10.135 23.667 11.213 6.0102 1.2477 10.928 4.9165 10.511 7.8412-0.35427 2.4824-3.0172 2.8636-7.1878 1.0289zm15.342-1.717c-2.0625-1.7312-7.3359-5.5985-11.719-8.594-23.4-16-41.66-33.27-35.18-33.27 0.76026 0 4.7607 2.7276 8.8899 6.0612 4.1292 3.3337 8.7932 6.726 10.365 7.5386 4.2829 2.2148 12.89 7.922 19.093 12.66 3.031 2.3152 6.8279 5.1112 8.4375 6.2134 5.0621 3.4665 8.2666 7.4475 7.9268 9.8479-0.46902 3.3142-3.5294 3.1331-7.8128-0.46244zm1103.6-8.73c-3.2936-3.2936 1.5382-7.3893 9.8733-8.3689 6.3064-0.74118 10.828 4.1084 5.2261 5.6052-11.23 3.0006-14.3 3.5626-15.099 2.7637zm-3.8576-18.046c-1.5066-2.4378 1.3571-5.5705 6.4439-7.0493 8.21-2.3867 13.298-0.19326 8.7084 3.7543-3.3661 2.8954-13.974 5.202-15.152 3.2949zm-1.6392-15.578c-1.6409-3.6013-0.085-5.3134 6.6591-7.3304 10.762-3.2183 16.081 2.0686 6.4158 6.3772-8.1674 3.641-11.732 3.9009-13.075 0.95313zm-2.6-15.44c0-6.1254 15.882-12.554 19.688-7.9688 1.312 1.5809-0.1535 4.2188-2.3437 4.2188-0.6472 0-1.7557 0.69968-2.4634 1.5548-4.2 5.08-14.9 6.65-14.9 2.2zm-959.48-43.08c-2.4131-2.0885-4.7361-3.7972-5.1623-3.7972-1.481 0-33.442-36.715-49.309-56.644-2.0854-2.6192-4.8859-6.7349-6.2235-9.1461-7.6064-13.712-24.477-31.133-37.507-38.732-9.1005-5.307-16.032-10.063-19.978-13.707-1.5469-1.4287-6.3984-4.3674-10.781-6.5303-6.5761-3.2453-16.314-9.2014-30.625-18.731-5.889-3.9215-21.703-15.665-26.744-19.86-3.1756-2.6428-7.9142-5.706-10.53-6.8072-5.5075-2.3183-9.2876-4.4144-15.635-8.6696-2.4997-1.6758-5.0182-3.0469-5.5966-3.0469-1.5542 0-16.687-7.4448-21.025-10.343-4.1404-2.7668-31.695-16.835-47.812-24.412-12.145-5.7092-21.526-9.3065-24.278-9.3099-3.8158-0.005-13.316-6.7767-22.128-15.774-14.98-15.28-40.52-39.63-48.85-46.564-4.33-3.609-12.31-10.996-17.73-16.416-9.78-9.795-30.95-28.059-42.92-37.021-14.17-10.623-36.98-36.419-35.53-40.195 1.0368-2.7019 2.4479-1.7125 13.592 9.5302 6.1975 6.2522 14.623 13.582 19.395 16.872 16.763 11.558 32.982 23.517 39.375 29.034 2.0625 1.7799 5.6484 4.8689 7.9688 6.8644 38 32.682 45.76 40.41 57.346 57.112 9.0142 12.995 17.258 20.219 23.862 20.909 6.5154 0.681 19.015 5.6947 33.013 13.242 5.3292 2.8733 10.085 5.2242 10.568 5.2242 0.81208 0 12.298 5.8009 17.712 8.9449 1.2891 0.74867 5.7188 2.9462 9.8438 4.8834 6.6548 3.1252 18.334 9.4082 31.607 17.003 2.4308 1.391 5.384 3.4077 6.5625 4.4817 1.1786 1.074 3.1975 2.4876 4.4866 3.1414 1.2891 0.65381 5.7844 3.6597 9.9897 6.6797 4.2052 3.02 8.0341 5.4909 8.5085 5.4909s1.8853 1.0944 3.1353 2.432c2.1102 2.2581 16.527 12.362 19.643 13.768 0.75873 0.3421 4.9654 2.9258 9.3483 5.7416 16.855 10.828 34.706 21.189 46.574 27.031 13.542 6.6656 23.852 13.503 26.261 17.417 0.85265 1.385 4.1753 5.2603 7.3837 8.6119 5.5574 5.8054 8.9177 10.328 19.505 26.25 2.5714 3.8672 5.4098 7.5591 6.3075 8.2043 0.89775 0.64518 1.9037 2.409 2.2355 3.9196 0.33178 1.5106 1.2732 3.3026 2.092 3.9821 0.81881 0.67954 3.1977 3.5564 5.2865 6.3929 2.0888 2.8366 6.5597 8.1431 9.9354 11.792 29.562 31.957 33.785 37.081 34.084 41.359 0.27368 3.9166-2.2907 3.7038-7.2667-0.60285zm1000.7-22.18c-3.7698-3.5958-5.9998-6.6416-7.0355-9.6094-0.8341-2.3897-2.1025-5.6106-2.8187-7.1575-0.7163-1.5469-1.7773-4.9219-2.358-7.5s-1.6981-6.7373-2.4831-9.2426c-1.7112-5.4615-2.4972-8.9473-9.1197-40.445-7.3758-35.08-8.0883-38.207-9.1623-40.214-9.7479-18.214 1.2443-41.914 15.958-34.408 5.0334 2.5678 12.204 10.909 12.958 15.072 0.3286 1.8148 1.332 4.7762 2.2298 6.5808 1.5137 3.043 3.4082 8.8379 7.509 22.969 3.3297 11.474 5.2552 19.271 11.808 47.812 1.3022 5.6719 3.1815 13.808 4.1762 18.081 5.0175 21.552 0.5562 37.695-11.706 42.357-3.8239 1.4538-4.0131 1.3722-9.9564-4.2968zm0.4708-32.001c9.9179-14.325 11.567-19.101 8.9609-25.955-1.701-4.4739-6.2585-0.32452-11.775 10.72-0.9013 1.8047-2.4228 4.2874-3.3812 5.5171-2.1368 2.7419-2.1674 4.0889-0.2087 9.2172 1.884 4.9336 3.2598 5.041 6.4037 0.5001zm-14.132-53.511c1.2463-1.9742 3.9938-5.5858 6.1056-8.0258 4.3464-5.022 4.7808-7.7883 2.3451-14.936-1.8488-5.4262-3.154-5.5152-5.8841-0.40138-4.8376 9.0616-5.8192 10.594-7.6922 12.006-2.1179 1.5975-1.3783 10.665 1.115 13.669 1.4484 1.7452 1.4501 1.7442 4.0106-2.3119z"/>
</svg>
